<?xml version="1.0" encoding="UTF-8" standalone="no"?>
<!-- Created with Inkscape (http://www.inkscape.org/) -->

<svg
   xmlns:dc="http://purl.org/dc/elements/1.1/"
   xmlns:cc="http://creativecommons.org/ns#"
   xmlns:rdf="http://www.w3.org/1999/02/22-rdf-syntax-ns#"
   xmlns:svg="http://www.w3.org/2000/svg"
   xmlns="http://www.w3.org/2000/svg"
   xmlns:sodipodi="http://sodipodi.sourceforge.net/DTD/sodipodi-0.dtd"
   xmlns:inkscape="http://www.inkscape.org/namespaces/inkscape"
   width="420"
   height="120"
   viewBox="0 0 420 120"
   id="svg2"
   version="1.1"
   inkscape:version="0.91 r13725"
   sodipodi:docname="stroke_order.svg">
  <defs
     id="defs4">
    <marker
       inkscape:stockid="TriangleOutM"
       orient="auto"
       refY="0.0"
       refX="0.0"
       id="marker6825"
       style="overflow:visible"
       inkscape:isstock="true">
      <path
         id="path6827"
         d="M 5.77,0.0 L -2.88,5.0 L -2.88,-5.0 L 5.77,0.0 z "
         style="fill-rule:evenodd;stroke:#ff0000;stroke-width:1pt;stroke-opacity:1;fill:#ff0000;fill-opacity:1"
         transform="scale(0.4)" />
    </marker>
    <marker
       inkscape:isstock="true"
       style="overflow:visible"
       id="marker6647"
       refX="0.0"
       refY="0.0"
       orient="auto"
       inkscape:stockid="TriangleOutM"
       inkscape:collect="always">
      <path
         transform="scale(0.4)"
         style="fill-rule:evenodd;stroke:#ff0000;stroke-width:1pt;stroke-opacity:1;fill:#ff0000;fill-opacity:1"
         d="M 5.77,0.0 L -2.88,5.0 L -2.88,-5.0 L 5.77,0.0 z "
         id="path6649" />
    </marker>
    <marker
       inkscape:stockid="TriangleOutM"
       orient="auto"
       refY="0.0"
       refX="0.0"
       id="marker6547"
       style="overflow:visible"
       inkscape:isstock="true"
       inkscape:collect="always">
      <path
         id="path6549"
         d="M 5.77,0.0 L -2.88,5.0 L -2.88,-5.0 L 5.77,0.0 z "
         style="fill-rule:evenodd;stroke:#ff0000;stroke-width:1pt;stroke-opacity:1;fill:#ff0000;fill-opacity:1"
         transform="scale(0.4)" />
    </marker>
    <inkscape:path-effect
       effect="spiro"
       id="path-effect6539"
       is_visible="true" />
    <inkscape:path-effect
       effect="spiro"
       id="path-effect6535"
       is_visible="true" />
    <inkscape:path-effect
       effect="spiro"
       id="path-effect6531"
       is_visible="true" />
    <marker
       inkscape:isstock="true"
       style="overflow:visible"
       id="marker5955"
       refX="0.0"
       refY="0.0"
       orient="auto"
       inkscape:stockid="TriangleOutM"
       inkscape:collect="always">
      <path
         transform="scale(0.4)"
         style="fill-rule:evenodd;stroke:#ff0000;stroke-width:1pt;stroke-opacity:1;fill:#ff0000;fill-opacity:1"
         d="M 5.77,0.0 L -2.88,5.0 L -2.88,-5.0 L 5.77,0.0 z "
         id="path5957" />
    </marker>
    <marker
       inkscape:stockid="TriangleOutM"
       orient="auto"
       refY="0.0"
       refX="0.0"
       id="TriangleOutM"
       style="overflow:visible"
       inkscape:isstock="true"
       inkscape:collect="always">
      <path
         id="path4842"
         d="M 5.77,0.0 L -2.88,5.0 L -2.88,-5.0 L 5.77,0.0 z "
         style="fill-rule:evenodd;stroke:#ff0000;stroke-width:1pt;stroke-opacity:1;fill:#ff0000;fill-opacity:1"
         transform="scale(0.4)" />
    </marker>
    <marker
       inkscape:stockid="EmptyTriangleOutM"
       orient="auto"
       refY="0.0"
       refX="0.0"
       id="EmptyTriangleOutM"
       style="overflow:visible"
       inkscape:isstock="true">
      <path
         id="path4860"
         d="M 5.77,0.0 L -2.88,5.0 L -2.88,-5.0 L 5.77,0.0 z "
         style="fill-rule:evenodd;fill:#ffffff;stroke:#ff0000;stroke-width:1pt;stroke-opacity:0.58823529"
         transform="scale(0.4) translate(-4.5,0)" />
    </marker>
    <marker
       inkscape:stockid="TriangleOutL"
       orient="auto"
       refY="0.0"
       refX="0.0"
       id="TriangleOutL"
       style="overflow:visible"
       inkscape:isstock="true">
      <path
         id="path4839"
         d="M 5.77,0.0 L -2.88,5.0 L -2.88,-5.0 L 5.77,0.0 z "
         style="fill-rule:evenodd;stroke:#ff0000;stroke-width:1pt;stroke-opacity:0.58823529;fill:#ff0000;fill-opacity:0.58823529"
         transform="scale(0.8)" />
    </marker>
    <marker
       inkscape:stockid="Arrow2Lend"
       orient="auto"
       refY="0.0"
       refX="0.0"
       id="marker5235"
       style="overflow:visible;"
       inkscape:isstock="true">
      <path
         id="path5237"
         style="fill-rule:evenodd;stroke-width:0.625;stroke-linejoin:round;stroke:#ff0000;stroke-opacity:0.58823529;fill:#ff0000;fill-opacity:0.58823529"
         d="M 8.7185878,4.0337352 L -2.2072895,0.016013256 L 8.7185884,-4.0017078 C 6.9730900,-1.6296469 6.9831476,1.6157441 8.7185878,4.0337352 z "
         transform="scale(1.1) rotate(180) translate(1,0)" />
    </marker>
    <marker
       inkscape:stockid="Arrow1Lend"
       orient="auto"
       refY="0.0"
       refX="0.0"
       id="marker5177"
       style="overflow:visible;"
       inkscape:isstock="true">
      <path
         id="path5179"
         d="M 0.0,0.0 L 5.0,-5.0 L -12.5,0.0 L 5.0,5.0 L 0.0,0.0 z "
         style="fill-rule:evenodd;stroke:#ff0000;stroke-width:1pt;stroke-opacity:0.58823529;fill:#ff0000;fill-opacity:0.58823529"
         transform="scale(0.8) rotate(180) translate(12.5,0)" />
    </marker>
    <marker
       inkscape:stockid="Arrow1Mstart"
       orient="auto"
       refY="0.0"
       refX="0.0"
       id="Arrow1Mstart"
       style="overflow:visible"
       inkscape:isstock="true">
      <path
         id="path4703"
         d="M 0.0,0.0 L 5.0,-5.0 L -12.5,0.0 L 5.0,5.0 L 0.0,0.0 z "
         style="fill-rule:evenodd;stroke:#ff0000;stroke-width:1pt;stroke-opacity:0.58823529;fill:#ff0000;fill-opacity:0.58823529"
         transform="scale(0.4) translate(10,0)" />
    </marker>
    <marker
       inkscape:stockid="Arrow1Lend"
       orient="auto"
       refY="0.0"
       refX="0.0"
       id="Arrow1Lend"
       style="overflow:visible;"
       inkscape:isstock="true">
      <path
         id="path4700"
         d="M 0.0,0.0 L 5.0,-5.0 L -12.5,0.0 L 5.0,5.0 L 0.0,0.0 z "
         style="fill-rule:evenodd;stroke:#ff0000;stroke-width:1pt;stroke-opacity:0.58823529;fill:#ff0000;fill-opacity:0.58823529"
         transform="scale(0.8) rotate(180) translate(12.5,0)" />
    </marker>
    <marker
       inkscape:stockid="Arrow2Mend"
       orient="auto"
       refY="0.0"
       refX="0.0"
       id="marker5031"
       style="overflow:visible;"
       inkscape:isstock="true">
      <path
         id="path5033"
         style="fill-rule:evenodd;stroke-width:0.625;stroke-linejoin:round;stroke:#ff0000;stroke-opacity:0.58823529;fill:#ff0000;fill-opacity:0.58823529"
         d="M 8.7185878,4.0337352 L -2.2072895,0.016013256 L 8.7185884,-4.0017078 C 6.9730900,-1.6296469 6.9831476,1.6157441 8.7185878,4.0337352 z "
         transform="scale(0.6) rotate(180) translate(0,0)" />
    </marker>
    <marker
       inkscape:stockid="Arrow2Mend"
       orient="auto"
       refY="0.0"
       refX="0.0"
       id="Arrow2Mend"
       style="overflow:visible;"
       inkscape:isstock="true">
      <path
         id="path4724"
         style="fill-rule:evenodd;stroke-width:0.625;stroke-linejoin:round;stroke:#ff0000;stroke-opacity:0.58823529;fill:#ff0000;fill-opacity:0.58823529"
         d="M 8.7185878,4.0337352 L -2.2072895,0.016013256 L 8.7185884,-4.0017078 C 6.9730900,-1.6296469 6.9831476,1.6157441 8.7185878,4.0337352 z "
         transform="scale(0.6) rotate(180) translate(0,0)" />
    </marker>
    <marker
       inkscape:stockid="Arrow1Mend"
       orient="auto"
       refY="0.0"
       refX="0.0"
       id="Arrow1Mend"
       style="overflow:visible;"
       inkscape:isstock="true">
      <path
         id="path4706"
         d="M 0.0,0.0 L 5.0,-5.0 L -12.5,0.0 L 5.0,5.0 L 0.0,0.0 z "
         style="fill-rule:evenodd;stroke:#ff0000;stroke-width:1pt;stroke-opacity:0.58823529;fill:#ff0000;fill-opacity:0.58823529"
         transform="scale(0.4) rotate(180) translate(10,0)" />
    </marker>
    <marker
       inkscape:stockid="Arrow2Lend"
       orient="auto"
       refY="0.0"
       refX="0.0"
       id="Arrow2Lend"
       style="overflow:visible;"
       inkscape:isstock="true">
      <path
         id="path4718"
         style="fill-rule:evenodd;stroke-width:0.625;stroke-linejoin:round;stroke:#ff0000;stroke-opacity:0.58823529;fill:#ff0000;fill-opacity:0.58823529"
         d="M 8.7185878,4.0337352 L -2.2072895,0.016013256 L 8.7185884,-4.0017078 C 6.9730900,-1.6296469 6.9831476,1.6157441 8.7185878,4.0337352 z "
         transform="scale(1.1) rotate(180) translate(1,0)" />
    </marker>
    <inkscape:path-effect
       effect="spiro"
       id="path-effect4268"
       is_visible="true" />
    <clipPath
       clipPathUnits="userSpaceOnUse"
       id="clipPath4252">
      <text
         transform="scale(0.95401358,1.0482031)"
         sodipodi:linespacing="125%"
         id="text4254"
         y="982.66449"
         x="-79.682037"
         style="font-style:normal;font-weight:normal;font-size:110.1632309px;line-height:125%;font-family:sans-serif;letter-spacing:0px;word-spacing:0px;fill:#ff1a01;fill-opacity:1;stroke:none;stroke-width:1px;stroke-linecap:butt;stroke-linejoin:miter;stroke-opacity:1"
         xml:space="preserve"><tspan
           id="tspan4256"
           y="982.66449"
           x="-79.682037"
           sodipodi:role="line"
           style="font-style:normal;font-variant:normal;font-weight:normal;font-stretch:normal;font-size:100px;font-family:'EPSON 太明朝体Ｂ';-inkscape-font-specification:'EPSON 太明朝体Ｂ'">┃ああああ┃</tspan></text>
    </clipPath>
    <clipPath
       clipPathUnits="userSpaceOnUse"
       id="clipPath5592">
      <g
         transform="matrix(0.95401358,0,0,1.0482031,0,-5.7716691e-6)"
         style="font-style:normal;font-weight:normal;font-size:110.1632309px;line-height:125%;font-family:sans-serif;letter-spacing:0px;word-spacing:0px;fill:#ff1a01;fill-opacity:1;stroke:none;stroke-width:1px;stroke-linecap:butt;stroke-linejoin:miter;stroke-opacity:1"
         id="g5594">
        <path
           d="m -33.978912,896.62933 0,100.19532 8.203125,0 0,-100.19532 -8.203125,0 z"
           style="font-style:normal;font-variant:normal;font-weight:normal;font-stretch:normal;font-size:100px;font-family:'EPSON 太明朝体Ｂ';-inkscape-font-specification:'EPSON 太明朝体Ｂ'"
           id="path5596"
           inkscape:connector-curvature="0" />
        <path
           d="m 32.232025,971.33636 q 0,4.88282 3.613281,8.88672 4.492188,4.49219 10.253907,4.49219 9.179687,0 16.210937,-6.54297 2.246094,3.8086 3.417969,3.8086 2.441406,0 4.492187,-2.34375 1.464844,-1.95313 1.464844,-3.02735 0,-0.8789 -0.488281,-1.95312 -0.78125,-1.5625 -1.953125,-2.92969 11.328125,-10.83984 20.019531,-26.85547 3.808594,1.26953 6.933594,5.66406 2.734375,3.8086 2.734375,9.57032 0,6.54296 -6.25,14.45312 -6.054688,7.71484 -21.777344,12.5 l 0.683594,2.05078 q 16.40625,-2.4414 25.683594,-7.42187 13.378902,-8.00782 13.378902,-19.72657 0,-8.6914 -5.46875,-14.74609 -5.957027,-6.34766 -15.429684,-8.59375 -1.757812,-2.14844 -5.273437,-4.39453 -3.125,-1.66016 -4.492188,-1.66016 -1.660156,0 -1.660156,2.05078 1.757813,1.66016 2.246094,3.125 -10.546875,0.19532 -17.871094,2.44141 0.390625,-4.6875 1.5625,-10.15625 14.648438,-1.85547 25.390625,-5.46875 3.027344,-1.17187 3.515625,-3.90625 0,-2.05078 -1.074219,-3.125 -3.125,-2.63672 -5.46875,-2.63672 -1.953125,0.48828 -3.613281,1.26953 -7.910156,3.51563 -16.40625,5.66407 0.585938,-3.02735 4.296875,-9.76563 0,-2.63672 -3.90625,-4.6875 -5.957031,-3.125 -10.839844,-3.125 -2.148437,0.68359 -2.148437,2.63672 5.175781,2.92969 5.175781,4.98047 0,0.8789 -0.488281,2.4414 -1.074219,3.61329 -2.246094,9.08204 -4.394531,0.78125 -10.546875,0.78125 -3.222656,0 -5.566406,-0.87891 -1.855469,-0.58594 -4.199219,-2.63672 l -0.78125,0.78125 q 1.367188,4.58984 4.101563,6.83594 4.199218,3.41797 8.496093,3.41797 2.539063,0 7.226563,-0.39063 -1.074219,4.98047 -1.074219,11.52344 -7.324219,3.51562 -12.402344,8.20312 -9.472656,9.08204 -9.472656,20.3125 z M 65.43515,964.1098 q -3.125,-7.22656 -3.125,-18.45703 7.324219,-3.41797 18.066406,-3.41797 -6.054687,13.08594 -14.941406,21.875 z m -16.992187,11.52344 q -3.320313,0 -4.882813,-1.75781 -1.953125,-1.95313 -1.953125,-5.56641 0,-10.74219 12.597656,-19.62891 0,12.59766 4.6875,21.97266 -5.46875,4.98047 -10.449218,4.98047 z"
           style="font-style:normal;font-variant:normal;font-weight:normal;font-stretch:normal;font-size:100px;font-family:'EPSON 太明朝体Ｂ';-inkscape-font-specification:'EPSON 太明朝体Ｂ'"
           id="path5598"
           inkscape:connector-curvature="0" />
        <path
           d="m 132.23203,971.33636 q 0,4.88282 3.61328,8.88672 4.49218,4.49219 10.2539,4.49219 9.17969,0 16.21094,-6.54297 2.24609,3.8086 3.41797,3.8086 2.44141,0 4.49219,-2.34375 1.46484,-1.95313 1.46484,-3.02735 0,-0.8789 -0.48828,-1.95312 -0.78125,-1.5625 -1.95313,-2.92969 11.32813,-10.83984 20.01954,-26.85547 3.80859,1.26953 6.93359,5.66406 2.73437,3.8086 2.73437,9.57032 0,6.54296 -6.25,14.45312 -6.05468,7.71484 -21.77734,12.5 l 0.68359,2.05078 q 16.40625,-2.4414 25.6836,-7.42187 13.3789,-8.00782 13.3789,-19.72657 0,-8.6914 -5.46875,-14.74609 -5.95703,-6.34766 -15.42968,-8.59375 -1.75782,-2.14844 -5.27344,-4.39453 -3.125,-1.66016 -4.49219,-1.66016 -1.66015,0 -1.66015,2.05078 1.75781,1.66016 2.24609,3.125 -10.54688,0.19532 -17.87109,2.44141 0.39062,-4.6875 1.5625,-10.15625 14.64843,-1.85547 25.39062,-5.46875 3.02734,-1.17187 3.51563,-3.90625 0,-2.05078 -1.07422,-3.125 -3.125,-2.63672 -5.46875,-2.63672 -1.95313,0.48828 -3.61328,1.26953 -7.91016,3.51563 -16.40625,5.66407 0.58593,-3.02735 4.29687,-9.76563 0,-2.63672 -3.90625,-4.6875 -5.95703,-3.125 -10.83984,-3.125 -2.14844,0.68359 -2.14844,2.63672 5.17578,2.92969 5.17578,4.98047 0,0.8789 -0.48828,2.4414 -1.07422,3.61329 -2.24609,9.08204 -4.39454,0.78125 -10.54688,0.78125 -3.22266,0 -5.56641,-0.87891 -1.85546,-0.58594 -4.19921,-2.63672 l -0.78125,0.78125 q 1.36718,4.58984 4.10156,6.83594 4.19922,3.41797 8.49609,3.41797 2.53906,0 7.22656,-0.39063 -1.07421,4.98047 -1.07421,11.52344 -7.32422,3.51562 -12.40235,8.20312 -9.47265,9.08204 -9.47265,20.3125 z m 33.20312,-7.22656 q -3.125,-7.22656 -3.125,-18.45703 7.32422,-3.41797 18.06641,-3.41797 -6.05469,13.08594 -14.94141,21.875 z m -16.99219,11.52344 q -3.32031,0 -4.88281,-1.75781 -1.95312,-1.95313 -1.95312,-5.56641 0,-10.74219 12.59765,-19.62891 0,12.59766 4.6875,21.97266 -5.46875,4.98047 -10.44922,4.98047 z"
           style="font-style:normal;font-variant:normal;font-weight:normal;font-stretch:normal;font-size:100px;font-family:'EPSON 太明朝体Ｂ';-inkscape-font-specification:'EPSON 太明朝体Ｂ'"
           id="path5600"
           inkscape:connector-curvature="0" />
        <path
           d="m 232.23203,971.33636 q 0,4.88282 3.61328,8.88672 4.49218,4.49219 10.2539,4.49219 9.17969,0 16.21094,-6.54297 2.24609,3.8086 3.41797,3.8086 2.44141,0 4.49219,-2.34375 1.46484,-1.95313 1.46484,-3.02735 0,-0.8789 -0.48828,-1.95312 -0.78125,-1.5625 -1.95313,-2.92969 11.32813,-10.83984 20.01954,-26.85547 3.80859,1.26953 6.93359,5.66406 2.73437,3.8086 2.73437,9.57032 0,6.54296 -6.25,14.45312 -6.05468,7.71484 -21.77734,12.5 l 0.68359,2.05078 q 16.40625,-2.4414 25.6836,-7.42187 13.3789,-8.00782 13.3789,-19.72657 0,-8.6914 -5.46875,-14.74609 -5.95703,-6.34766 -15.42968,-8.59375 -1.75782,-2.14844 -5.27344,-4.39453 -3.125,-1.66016 -4.49219,-1.66016 -1.66015,0 -1.66015,2.05078 1.75781,1.66016 2.24609,3.125 -10.54688,0.19532 -17.87109,2.44141 0.39062,-4.6875 1.5625,-10.15625 14.64843,-1.85547 25.39062,-5.46875 3.02734,-1.17187 3.51563,-3.90625 0,-2.05078 -1.07422,-3.125 -3.125,-2.63672 -5.46875,-2.63672 -1.95313,0.48828 -3.61328,1.26953 -7.91016,3.51563 -16.40625,5.66407 0.58593,-3.02735 4.29687,-9.76563 0,-2.63672 -3.90625,-4.6875 -5.95703,-3.125 -10.83984,-3.125 -2.14844,0.68359 -2.14844,2.63672 5.17578,2.92969 5.17578,4.98047 0,0.8789 -0.48828,2.4414 -1.07422,3.61329 -2.24609,9.08204 -4.39454,0.78125 -10.54688,0.78125 -3.22266,0 -5.56641,-0.87891 -1.85546,-0.58594 -4.19921,-2.63672 l -0.78125,0.78125 q 1.36718,4.58984 4.10156,6.83594 4.19922,3.41797 8.49609,3.41797 2.53906,0 7.22656,-0.39063 -1.07421,4.98047 -1.07421,11.52344 -7.32422,3.51562 -12.40235,8.20312 -9.47265,9.08204 -9.47265,20.3125 z m 33.20312,-7.22656 q -3.125,-7.22656 -3.125,-18.45703 7.32422,-3.41797 18.06641,-3.41797 -6.05469,13.08594 -14.94141,21.875 z m -16.99219,11.52344 q -3.32031,0 -4.88281,-1.75781 -1.95312,-1.95313 -1.95312,-5.56641 0,-10.74219 12.59765,-19.62891 0,12.59766 4.6875,21.97266 -5.46875,4.98047 -10.44922,4.98047 z"
           style="font-style:normal;font-variant:normal;font-weight:normal;font-stretch:normal;font-size:100px;font-family:'EPSON 太明朝体Ｂ';-inkscape-font-specification:'EPSON 太明朝体Ｂ'"
           id="path5602"
           inkscape:connector-curvature="0" />
        <path
           d="m 332.23203,971.33636 q 0,4.88282 3.61328,8.88672 4.49218,4.49219 10.2539,4.49219 9.17969,0 16.21094,-6.54297 2.24609,3.8086 3.41797,3.8086 2.44141,0 4.49219,-2.34375 1.46484,-1.95313 1.46484,-3.02735 0,-0.8789 -0.48828,-1.95312 -0.78125,-1.5625 -1.95313,-2.92969 11.32813,-10.83984 20.01954,-26.85547 3.80859,1.26953 6.93359,5.66406 2.73437,3.8086 2.73437,9.57032 0,6.54296 -6.25,14.45312 -6.05468,7.71484 -21.77734,12.5 l 0.68359,2.05078 q 16.40625,-2.4414 25.6836,-7.42187 13.3789,-8.00782 13.3789,-19.72657 0,-8.6914 -5.46875,-14.74609 -5.95703,-6.34766 -15.42968,-8.59375 -1.75782,-2.14844 -5.27344,-4.39453 -3.125,-1.66016 -4.49219,-1.66016 -1.66015,0 -1.66015,2.05078 1.75781,1.66016 2.24609,3.125 -10.54688,0.19532 -17.87109,2.44141 0.39062,-4.6875 1.5625,-10.15625 14.64843,-1.85547 25.39062,-5.46875 3.02734,-1.17187 3.51563,-3.90625 0,-2.05078 -1.07422,-3.125 -3.125,-2.63672 -5.46875,-2.63672 -1.95313,0.48828 -3.61328,1.26953 -7.91016,3.51563 -16.40625,5.66407 0.58593,-3.02735 4.29687,-9.76563 0,-2.63672 -3.90625,-4.6875 -5.95703,-3.125 -10.83984,-3.125 -2.14844,0.68359 -2.14844,2.63672 5.17578,2.92969 5.17578,4.98047 0,0.8789 -0.48828,2.4414 -1.07422,3.61329 -2.24609,9.08204 -4.39454,0.78125 -10.54688,0.78125 -3.22266,0 -5.56641,-0.87891 -1.85546,-0.58594 -4.19921,-2.63672 l -0.78125,0.78125 q 1.36718,4.58984 4.10156,6.83594 4.19922,3.41797 8.49609,3.41797 2.53906,0 7.22656,-0.39063 -1.07421,4.98047 -1.07421,11.52344 -7.32422,3.51562 -12.40235,8.20312 -9.47265,9.08204 -9.47265,20.3125 z m 33.20312,-7.22656 q -3.125,-7.22656 -3.125,-18.45703 7.32422,-3.41797 18.06641,-3.41797 -6.05469,13.08594 -14.94141,21.875 z m -16.99219,11.52344 q -3.32031,0 -4.88281,-1.75781 -1.95312,-1.95313 -1.95312,-5.56641 0,-10.74219 12.59765,-19.62891 0,12.59766 4.6875,21.97266 -5.46875,4.98047 -10.44922,4.98047 z"
           style="font-style:normal;font-variant:normal;font-weight:normal;font-stretch:normal;font-size:100px;font-family:'EPSON 太明朝体Ｂ';-inkscape-font-specification:'EPSON 太明朝体Ｂ'"
           id="path5604"
           inkscape:connector-curvature="0" />
        <path
           d="m 466.02109,896.62933 0,100.19532 8.20312,0 0,-100.19532 -8.20312,0 z"
           style="font-style:normal;font-variant:normal;font-weight:normal;font-stretch:normal;font-size:100px;font-family:'EPSON 太明朝体Ｂ';-inkscape-font-specification:'EPSON 太明朝体Ｂ'"
           id="path5606"
           inkscape:connector-curvature="0" />
      </g>
    </clipPath>
    <clipPath
       clipPathUnits="userSpaceOnUse"
       id="clipPath5608">
      <g
         transform="matrix(0.95401358,0,0,1.0482031,0,-5.7716691e-6)"
         style="font-style:normal;font-weight:normal;font-size:110.1632309px;line-height:125%;font-family:sans-serif;letter-spacing:0px;word-spacing:0px;fill:#ff1a01;fill-opacity:1;stroke:none;stroke-width:1px;stroke-linecap:butt;stroke-linejoin:miter;stroke-opacity:1"
         id="g5610">
        <path
           d="m -33.978912,896.62933 0,100.19532 8.203125,0 0,-100.19532 -8.203125,0 z"
           style="font-style:normal;font-variant:normal;font-weight:normal;font-stretch:normal;font-size:100px;font-family:'EPSON 太明朝体Ｂ';-inkscape-font-specification:'EPSON 太明朝体Ｂ'"
           id="path5612"
           inkscape:connector-curvature="0" />
        <path
           d="m 32.232025,971.33636 q 0,4.88282 3.613281,8.88672 4.492188,4.49219 10.253907,4.49219 9.179687,0 16.210937,-6.54297 2.246094,3.8086 3.417969,3.8086 2.441406,0 4.492187,-2.34375 1.464844,-1.95313 1.464844,-3.02735 0,-0.8789 -0.488281,-1.95312 -0.78125,-1.5625 -1.953125,-2.92969 11.328125,-10.83984 20.019531,-26.85547 3.808594,1.26953 6.933594,5.66406 2.734375,3.8086 2.734375,9.57032 0,6.54296 -6.25,14.45312 -6.054688,7.71484 -21.777344,12.5 l 0.683594,2.05078 q 16.40625,-2.4414 25.683594,-7.42187 13.378902,-8.00782 13.378902,-19.72657 0,-8.6914 -5.46875,-14.74609 -5.957027,-6.34766 -15.429684,-8.59375 -1.757812,-2.14844 -5.273437,-4.39453 -3.125,-1.66016 -4.492188,-1.66016 -1.660156,0 -1.660156,2.05078 1.757813,1.66016 2.246094,3.125 -10.546875,0.19532 -17.871094,2.44141 0.390625,-4.6875 1.5625,-10.15625 14.648438,-1.85547 25.390625,-5.46875 3.027344,-1.17187 3.515625,-3.90625 0,-2.05078 -1.074219,-3.125 -3.125,-2.63672 -5.46875,-2.63672 -1.953125,0.48828 -3.613281,1.26953 -7.910156,3.51563 -16.40625,5.66407 0.585938,-3.02735 4.296875,-9.76563 0,-2.63672 -3.90625,-4.6875 -5.957031,-3.125 -10.839844,-3.125 -2.148437,0.68359 -2.148437,2.63672 5.175781,2.92969 5.175781,4.98047 0,0.8789 -0.488281,2.4414 -1.074219,3.61329 -2.246094,9.08204 -4.394531,0.78125 -10.546875,0.78125 -3.222656,0 -5.566406,-0.87891 -1.855469,-0.58594 -4.199219,-2.63672 l -0.78125,0.78125 q 1.367188,4.58984 4.101563,6.83594 4.199218,3.41797 8.496093,3.41797 2.539063,0 7.226563,-0.39063 -1.074219,4.98047 -1.074219,11.52344 -7.324219,3.51562 -12.402344,8.20312 -9.472656,9.08204 -9.472656,20.3125 z M 65.43515,964.1098 q -3.125,-7.22656 -3.125,-18.45703 7.324219,-3.41797 18.066406,-3.41797 -6.054687,13.08594 -14.941406,21.875 z m -16.992187,11.52344 q -3.320313,0 -4.882813,-1.75781 -1.953125,-1.95313 -1.953125,-5.56641 0,-10.74219 12.597656,-19.62891 0,12.59766 4.6875,21.97266 -5.46875,4.98047 -10.449218,4.98047 z"
           style="font-style:normal;font-variant:normal;font-weight:normal;font-stretch:normal;font-size:100px;font-family:'EPSON 太明朝体Ｂ';-inkscape-font-specification:'EPSON 太明朝体Ｂ'"
           id="path5614"
           inkscape:connector-curvature="0" />
        <path
           d="m 132.23203,971.33636 q 0,4.88282 3.61328,8.88672 4.49218,4.49219 10.2539,4.49219 9.17969,0 16.21094,-6.54297 2.24609,3.8086 3.41797,3.8086 2.44141,0 4.49219,-2.34375 1.46484,-1.95313 1.46484,-3.02735 0,-0.8789 -0.48828,-1.95312 -0.78125,-1.5625 -1.95313,-2.92969 11.32813,-10.83984 20.01954,-26.85547 3.80859,1.26953 6.93359,5.66406 2.73437,3.8086 2.73437,9.57032 0,6.54296 -6.25,14.45312 -6.05468,7.71484 -21.77734,12.5 l 0.68359,2.05078 q 16.40625,-2.4414 25.6836,-7.42187 13.3789,-8.00782 13.3789,-19.72657 0,-8.6914 -5.46875,-14.74609 -5.95703,-6.34766 -15.42968,-8.59375 -1.75782,-2.14844 -5.27344,-4.39453 -3.125,-1.66016 -4.49219,-1.66016 -1.66015,0 -1.66015,2.05078 1.75781,1.66016 2.24609,3.125 -10.54688,0.19532 -17.87109,2.44141 0.39062,-4.6875 1.5625,-10.15625 14.64843,-1.85547 25.39062,-5.46875 3.02734,-1.17187 3.51563,-3.90625 0,-2.05078 -1.07422,-3.125 -3.125,-2.63672 -5.46875,-2.63672 -1.95313,0.48828 -3.61328,1.26953 -7.91016,3.51563 -16.40625,5.66407 0.58593,-3.02735 4.29687,-9.76563 0,-2.63672 -3.90625,-4.6875 -5.95703,-3.125 -10.83984,-3.125 -2.14844,0.68359 -2.14844,2.63672 5.17578,2.92969 5.17578,4.98047 0,0.8789 -0.48828,2.4414 -1.07422,3.61329 -2.24609,9.08204 -4.39454,0.78125 -10.54688,0.78125 -3.22266,0 -5.56641,-0.87891 -1.85546,-0.58594 -4.19921,-2.63672 l -0.78125,0.78125 q 1.36718,4.58984 4.10156,6.83594 4.19922,3.41797 8.49609,3.41797 2.53906,0 7.22656,-0.39063 -1.07421,4.98047 -1.07421,11.52344 -7.32422,3.51562 -12.40235,8.20312 -9.47265,9.08204 -9.47265,20.3125 z m 33.20312,-7.22656 q -3.125,-7.22656 -3.125,-18.45703 7.32422,-3.41797 18.06641,-3.41797 -6.05469,13.08594 -14.94141,21.875 z m -16.99219,11.52344 q -3.32031,0 -4.88281,-1.75781 -1.95312,-1.95313 -1.95312,-5.56641 0,-10.74219 12.59765,-19.62891 0,12.59766 4.6875,21.97266 -5.46875,4.98047 -10.44922,4.98047 z"
           style="font-style:normal;font-variant:normal;font-weight:normal;font-stretch:normal;font-size:100px;font-family:'EPSON 太明朝体Ｂ';-inkscape-font-specification:'EPSON 太明朝体Ｂ'"
           id="path5616"
           inkscape:connector-curvature="0" />
        <path
           d="m 232.23203,971.33636 q 0,4.88282 3.61328,8.88672 4.49218,4.49219 10.2539,4.49219 9.17969,0 16.21094,-6.54297 2.24609,3.8086 3.41797,3.8086 2.44141,0 4.49219,-2.34375 1.46484,-1.95313 1.46484,-3.02735 0,-0.8789 -0.48828,-1.95312 -0.78125,-1.5625 -1.95313,-2.92969 11.32813,-10.83984 20.01954,-26.85547 3.80859,1.26953 6.93359,5.66406 2.73437,3.8086 2.73437,9.57032 0,6.54296 -6.25,14.45312 -6.05468,7.71484 -21.77734,12.5 l 0.68359,2.05078 q 16.40625,-2.4414 25.6836,-7.42187 13.3789,-8.00782 13.3789,-19.72657 0,-8.6914 -5.46875,-14.74609 -5.95703,-6.34766 -15.42968,-8.59375 -1.75782,-2.14844 -5.27344,-4.39453 -3.125,-1.66016 -4.49219,-1.66016 -1.66015,0 -1.66015,2.05078 1.75781,1.66016 2.24609,3.125 -10.54688,0.19532 -17.87109,2.44141 0.39062,-4.6875 1.5625,-10.15625 14.64843,-1.85547 25.39062,-5.46875 3.02734,-1.17187 3.51563,-3.90625 0,-2.05078 -1.07422,-3.125 -3.125,-2.63672 -5.46875,-2.63672 -1.95313,0.48828 -3.61328,1.26953 -7.91016,3.51563 -16.40625,5.66407 0.58593,-3.02735 4.29687,-9.76563 0,-2.63672 -3.90625,-4.6875 -5.95703,-3.125 -10.83984,-3.125 -2.14844,0.68359 -2.14844,2.63672 5.17578,2.92969 5.17578,4.98047 0,0.8789 -0.48828,2.4414 -1.07422,3.61329 -2.24609,9.08204 -4.39454,0.78125 -10.54688,0.78125 -3.22266,0 -5.56641,-0.87891 -1.85546,-0.58594 -4.19921,-2.63672 l -0.78125,0.78125 q 1.36718,4.58984 4.10156,6.83594 4.19922,3.41797 8.49609,3.41797 2.53906,0 7.22656,-0.39063 -1.07421,4.98047 -1.07421,11.52344 -7.32422,3.51562 -12.40235,8.20312 -9.47265,9.08204 -9.47265,20.3125 z m 33.20312,-7.22656 q -3.125,-7.22656 -3.125,-18.45703 7.32422,-3.41797 18.06641,-3.41797 -6.05469,13.08594 -14.94141,21.875 z m -16.99219,11.52344 q -3.32031,0 -4.88281,-1.75781 -1.95312,-1.95313 -1.95312,-5.56641 0,-10.74219 12.59765,-19.62891 0,12.59766 4.6875,21.97266 -5.46875,4.98047 -10.44922,4.98047 z"
           style="font-style:normal;font-variant:normal;font-weight:normal;font-stretch:normal;font-size:100px;font-family:'EPSON 太明朝体Ｂ';-inkscape-font-specification:'EPSON 太明朝体Ｂ'"
           id="path5618"
           inkscape:connector-curvature="0" />
        <path
           d="m 332.23203,971.33636 q 0,4.88282 3.61328,8.88672 4.49218,4.49219 10.2539,4.49219 9.17969,0 16.21094,-6.54297 2.24609,3.8086 3.41797,3.8086 2.44141,0 4.49219,-2.34375 1.46484,-1.95313 1.46484,-3.02735 0,-0.8789 -0.48828,-1.95312 -0.78125,-1.5625 -1.95313,-2.92969 11.32813,-10.83984 20.01954,-26.85547 3.80859,1.26953 6.93359,5.66406 2.73437,3.8086 2.73437,9.57032 0,6.54296 -6.25,14.45312 -6.05468,7.71484 -21.77734,12.5 l 0.68359,2.05078 q 16.40625,-2.4414 25.6836,-7.42187 13.3789,-8.00782 13.3789,-19.72657 0,-8.6914 -5.46875,-14.74609 -5.95703,-6.34766 -15.42968,-8.59375 -1.75782,-2.14844 -5.27344,-4.39453 -3.125,-1.66016 -4.49219,-1.66016 -1.66015,0 -1.66015,2.05078 1.75781,1.66016 2.24609,3.125 -10.54688,0.19532 -17.87109,2.44141 0.39062,-4.6875 1.5625,-10.15625 14.64843,-1.85547 25.39062,-5.46875 3.02734,-1.17187 3.51563,-3.90625 0,-2.05078 -1.07422,-3.125 -3.125,-2.63672 -5.46875,-2.63672 -1.95313,0.48828 -3.61328,1.26953 -7.91016,3.51563 -16.40625,5.66407 0.58593,-3.02735 4.29687,-9.76563 0,-2.63672 -3.90625,-4.6875 -5.95703,-3.125 -10.83984,-3.125 -2.14844,0.68359 -2.14844,2.63672 5.17578,2.92969 5.17578,4.98047 0,0.8789 -0.48828,2.4414 -1.07422,3.61329 -2.24609,9.08204 -4.39454,0.78125 -10.54688,0.78125 -3.22266,0 -5.56641,-0.87891 -1.85546,-0.58594 -4.19921,-2.63672 l -0.78125,0.78125 q 1.36718,4.58984 4.10156,6.83594 4.19922,3.41797 8.49609,3.41797 2.53906,0 7.22656,-0.39063 -1.07421,4.98047 -1.07421,11.52344 -7.32422,3.51562 -12.40235,8.20312 -9.47265,9.08204 -9.47265,20.3125 z m 33.20312,-7.22656 q -3.125,-7.22656 -3.125,-18.45703 7.32422,-3.41797 18.06641,-3.41797 -6.05469,13.08594 -14.94141,21.875 z m -16.99219,11.52344 q -3.32031,0 -4.88281,-1.75781 -1.95312,-1.95313 -1.95312,-5.56641 0,-10.74219 12.59765,-19.62891 0,12.59766 4.6875,21.97266 -5.46875,4.98047 -10.44922,4.98047 z"
           style="font-style:normal;font-variant:normal;font-weight:normal;font-stretch:normal;font-size:100px;font-family:'EPSON 太明朝体Ｂ';-inkscape-font-specification:'EPSON 太明朝体Ｂ'"
           id="path5620"
           inkscape:connector-curvature="0" />
        <path
           d="m 466.02109,896.62933 0,100.19532 8.20312,0 0,-100.19532 -8.20312,0 z"
           style="font-style:normal;font-variant:normal;font-weight:normal;font-stretch:normal;font-size:100px;font-family:'EPSON 太明朝体Ｂ';-inkscape-font-specification:'EPSON 太明朝体Ｂ'"
           id="path5622"
           inkscape:connector-curvature="0" />
      </g>
    </clipPath>
    <clipPath
       clipPathUnits="userSpaceOnUse"
       id="clipPath5624">
      <g
         transform="matrix(0.95401358,0,0,1.0482031,0,-5.7716691e-6)"
         style="font-style:normal;font-weight:normal;font-size:110.1632309px;line-height:125%;font-family:sans-serif;letter-spacing:0px;word-spacing:0px;fill:#ff1a01;fill-opacity:1;stroke:none;stroke-width:1px;stroke-linecap:butt;stroke-linejoin:miter;stroke-opacity:1"
         id="g5626">
        <path
           d="m -33.978912,896.62933 0,100.19532 8.203125,0 0,-100.19532 -8.203125,0 z"
           style="font-style:normal;font-variant:normal;font-weight:normal;font-stretch:normal;font-size:100px;font-family:'EPSON 太明朝体Ｂ';-inkscape-font-specification:'EPSON 太明朝体Ｂ'"
           id="path5628"
           inkscape:connector-curvature="0" />
        <path
           d="m 32.232025,971.33636 q 0,4.88282 3.613281,8.88672 4.492188,4.49219 10.253907,4.49219 9.179687,0 16.210937,-6.54297 2.246094,3.8086 3.417969,3.8086 2.441406,0 4.492187,-2.34375 1.464844,-1.95313 1.464844,-3.02735 0,-0.8789 -0.488281,-1.95312 -0.78125,-1.5625 -1.953125,-2.92969 11.328125,-10.83984 20.019531,-26.85547 3.808594,1.26953 6.933594,5.66406 2.734375,3.8086 2.734375,9.57032 0,6.54296 -6.25,14.45312 -6.054688,7.71484 -21.777344,12.5 l 0.683594,2.05078 q 16.40625,-2.4414 25.683594,-7.42187 13.378902,-8.00782 13.378902,-19.72657 0,-8.6914 -5.46875,-14.74609 -5.957027,-6.34766 -15.429684,-8.59375 -1.757812,-2.14844 -5.273437,-4.39453 -3.125,-1.66016 -4.492188,-1.66016 -1.660156,0 -1.660156,2.05078 1.757813,1.66016 2.246094,3.125 -10.546875,0.19532 -17.871094,2.44141 0.390625,-4.6875 1.5625,-10.15625 14.648438,-1.85547 25.390625,-5.46875 3.027344,-1.17187 3.515625,-3.90625 0,-2.05078 -1.074219,-3.125 -3.125,-2.63672 -5.46875,-2.63672 -1.953125,0.48828 -3.613281,1.26953 -7.910156,3.51563 -16.40625,5.66407 0.585938,-3.02735 4.296875,-9.76563 0,-2.63672 -3.90625,-4.6875 -5.957031,-3.125 -10.839844,-3.125 -2.148437,0.68359 -2.148437,2.63672 5.175781,2.92969 5.175781,4.98047 0,0.8789 -0.488281,2.4414 -1.074219,3.61329 -2.246094,9.08204 -4.394531,0.78125 -10.546875,0.78125 -3.222656,0 -5.566406,-0.87891 -1.855469,-0.58594 -4.199219,-2.63672 l -0.78125,0.78125 q 1.367188,4.58984 4.101563,6.83594 4.199218,3.41797 8.496093,3.41797 2.539063,0 7.226563,-0.39063 -1.074219,4.98047 -1.074219,11.52344 -7.324219,3.51562 -12.402344,8.20312 -9.472656,9.08204 -9.472656,20.3125 z M 65.43515,964.1098 q -3.125,-7.22656 -3.125,-18.45703 7.324219,-3.41797 18.066406,-3.41797 -6.054687,13.08594 -14.941406,21.875 z m -16.992187,11.52344 q -3.320313,0 -4.882813,-1.75781 -1.953125,-1.95313 -1.953125,-5.56641 0,-10.74219 12.597656,-19.62891 0,12.59766 4.6875,21.97266 -5.46875,4.98047 -10.449218,4.98047 z"
           style="font-style:normal;font-variant:normal;font-weight:normal;font-stretch:normal;font-size:100px;font-family:'EPSON 太明朝体Ｂ';-inkscape-font-specification:'EPSON 太明朝体Ｂ'"
           id="path5630"
           inkscape:connector-curvature="0" />
        <path
           d="m 132.23203,971.33636 q 0,4.88282 3.61328,8.88672 4.49218,4.49219 10.2539,4.49219 9.17969,0 16.21094,-6.54297 2.24609,3.8086 3.41797,3.8086 2.44141,0 4.49219,-2.34375 1.46484,-1.95313 1.46484,-3.02735 0,-0.8789 -0.48828,-1.95312 -0.78125,-1.5625 -1.95313,-2.92969 11.32813,-10.83984 20.01954,-26.85547 3.80859,1.26953 6.93359,5.66406 2.73437,3.8086 2.73437,9.57032 0,6.54296 -6.25,14.45312 -6.05468,7.71484 -21.77734,12.5 l 0.68359,2.05078 q 16.40625,-2.4414 25.6836,-7.42187 13.3789,-8.00782 13.3789,-19.72657 0,-8.6914 -5.46875,-14.74609 -5.95703,-6.34766 -15.42968,-8.59375 -1.75782,-2.14844 -5.27344,-4.39453 -3.125,-1.66016 -4.49219,-1.66016 -1.66015,0 -1.66015,2.05078 1.75781,1.66016 2.24609,3.125 -10.54688,0.19532 -17.87109,2.44141 0.39062,-4.6875 1.5625,-10.15625 14.64843,-1.85547 25.39062,-5.46875 3.02734,-1.17187 3.51563,-3.90625 0,-2.05078 -1.07422,-3.125 -3.125,-2.63672 -5.46875,-2.63672 -1.95313,0.48828 -3.61328,1.26953 -7.91016,3.51563 -16.40625,5.66407 0.58593,-3.02735 4.29687,-9.76563 0,-2.63672 -3.90625,-4.6875 -5.95703,-3.125 -10.83984,-3.125 -2.14844,0.68359 -2.14844,2.63672 5.17578,2.92969 5.17578,4.98047 0,0.8789 -0.48828,2.4414 -1.07422,3.61329 -2.24609,9.08204 -4.39454,0.78125 -10.54688,0.78125 -3.22266,0 -5.56641,-0.87891 -1.85546,-0.58594 -4.19921,-2.63672 l -0.78125,0.78125 q 1.36718,4.58984 4.10156,6.83594 4.19922,3.41797 8.49609,3.41797 2.53906,0 7.22656,-0.39063 -1.07421,4.98047 -1.07421,11.52344 -7.32422,3.51562 -12.40235,8.20312 -9.47265,9.08204 -9.47265,20.3125 z m 33.20312,-7.22656 q -3.125,-7.22656 -3.125,-18.45703 7.32422,-3.41797 18.06641,-3.41797 -6.05469,13.08594 -14.94141,21.875 z m -16.99219,11.52344 q -3.32031,0 -4.88281,-1.75781 -1.95312,-1.95313 -1.95312,-5.56641 0,-10.74219 12.59765,-19.62891 0,12.59766 4.6875,21.97266 -5.46875,4.98047 -10.44922,4.98047 z"
           style="font-style:normal;font-variant:normal;font-weight:normal;font-stretch:normal;font-size:100px;font-family:'EPSON 太明朝体Ｂ';-inkscape-font-specification:'EPSON 太明朝体Ｂ'"
           id="path5632"
           inkscape:connector-curvature="0" />
        <path
           d="m 232.23203,971.33636 q 0,4.88282 3.61328,8.88672 4.49218,4.49219 10.2539,4.49219 9.17969,0 16.21094,-6.54297 2.24609,3.8086 3.41797,3.8086 2.44141,0 4.49219,-2.34375 1.46484,-1.95313 1.46484,-3.02735 0,-0.8789 -0.48828,-1.95312 -0.78125,-1.5625 -1.95313,-2.92969 11.32813,-10.83984 20.01954,-26.85547 3.80859,1.26953 6.93359,5.66406 2.73437,3.8086 2.73437,9.57032 0,6.54296 -6.25,14.45312 -6.05468,7.71484 -21.77734,12.5 l 0.68359,2.05078 q 16.40625,-2.4414 25.6836,-7.42187 13.3789,-8.00782 13.3789,-19.72657 0,-8.6914 -5.46875,-14.74609 -5.95703,-6.34766 -15.42968,-8.59375 -1.75782,-2.14844 -5.27344,-4.39453 -3.125,-1.66016 -4.49219,-1.66016 -1.66015,0 -1.66015,2.05078 1.75781,1.66016 2.24609,3.125 -10.54688,0.19532 -17.87109,2.44141 0.39062,-4.6875 1.5625,-10.15625 14.64843,-1.85547 25.39062,-5.46875 3.02734,-1.17187 3.51563,-3.90625 0,-2.05078 -1.07422,-3.125 -3.125,-2.63672 -5.46875,-2.63672 -1.95313,0.48828 -3.61328,1.26953 -7.91016,3.51563 -16.40625,5.66407 0.58593,-3.02735 4.29687,-9.76563 0,-2.63672 -3.90625,-4.6875 -5.95703,-3.125 -10.83984,-3.125 -2.14844,0.68359 -2.14844,2.63672 5.17578,2.92969 5.17578,4.98047 0,0.8789 -0.48828,2.4414 -1.07422,3.61329 -2.24609,9.08204 -4.39454,0.78125 -10.54688,0.78125 -3.22266,0 -5.56641,-0.87891 -1.85546,-0.58594 -4.19921,-2.63672 l -0.78125,0.78125 q 1.36718,4.58984 4.10156,6.83594 4.19922,3.41797 8.49609,3.41797 2.53906,0 7.22656,-0.39063 -1.07421,4.98047 -1.07421,11.52344 -7.32422,3.51562 -12.40235,8.20312 -9.47265,9.08204 -9.47265,20.3125 z m 33.20312,-7.22656 q -3.125,-7.22656 -3.125,-18.45703 7.32422,-3.41797 18.06641,-3.41797 -6.05469,13.08594 -14.94141,21.875 z m -16.99219,11.52344 q -3.32031,0 -4.88281,-1.75781 -1.95312,-1.95313 -1.95312,-5.56641 0,-10.74219 12.59765,-19.62891 0,12.59766 4.6875,21.97266 -5.46875,4.98047 -10.44922,4.98047 z"
           style="font-style:normal;font-variant:normal;font-weight:normal;font-stretch:normal;font-size:100px;font-family:'EPSON 太明朝体Ｂ';-inkscape-font-specification:'EPSON 太明朝体Ｂ'"
           id="path5634"
           inkscape:connector-curvature="0" />
        <path
           d="m 332.23203,971.33636 q 0,4.88282 3.61328,8.88672 4.49218,4.49219 10.2539,4.49219 9.17969,0 16.21094,-6.54297 2.24609,3.8086 3.41797,3.8086 2.44141,0 4.49219,-2.34375 1.46484,-1.95313 1.46484,-3.02735 0,-0.8789 -0.48828,-1.95312 -0.78125,-1.5625 -1.95313,-2.92969 11.32813,-10.83984 20.01954,-26.85547 3.80859,1.26953 6.93359,5.66406 2.73437,3.8086 2.73437,9.57032 0,6.54296 -6.25,14.45312 -6.05468,7.71484 -21.77734,12.5 l 0.68359,2.05078 q 16.40625,-2.4414 25.6836,-7.42187 13.3789,-8.00782 13.3789,-19.72657 0,-8.6914 -5.46875,-14.74609 -5.95703,-6.34766 -15.42968,-8.59375 -1.75782,-2.14844 -5.27344,-4.39453 -3.125,-1.66016 -4.49219,-1.66016 -1.66015,0 -1.66015,2.05078 1.75781,1.66016 2.24609,3.125 -10.54688,0.19532 -17.87109,2.44141 0.39062,-4.6875 1.5625,-10.15625 14.64843,-1.85547 25.39062,-5.46875 3.02734,-1.17187 3.51563,-3.90625 0,-2.05078 -1.07422,-3.125 -3.125,-2.63672 -5.46875,-2.63672 -1.95313,0.48828 -3.61328,1.26953 -7.91016,3.51563 -16.40625,5.66407 0.58593,-3.02735 4.29687,-9.76563 0,-2.63672 -3.90625,-4.6875 -5.95703,-3.125 -10.83984,-3.125 -2.14844,0.68359 -2.14844,2.63672 5.17578,2.92969 5.17578,4.98047 0,0.8789 -0.48828,2.4414 -1.07422,3.61329 -2.24609,9.08204 -4.39454,0.78125 -10.54688,0.78125 -3.22266,0 -5.56641,-0.87891 -1.85546,-0.58594 -4.19921,-2.63672 l -0.78125,0.78125 q 1.36718,4.58984 4.10156,6.83594 4.19922,3.41797 8.49609,3.41797 2.53906,0 7.22656,-0.39063 -1.07421,4.98047 -1.07421,11.52344 -7.32422,3.51562 -12.40235,8.20312 -9.47265,9.08204 -9.47265,20.3125 z m 33.20312,-7.22656 q -3.125,-7.22656 -3.125,-18.45703 7.32422,-3.41797 18.06641,-3.41797 -6.05469,13.08594 -14.94141,21.875 z m -16.99219,11.52344 q -3.32031,0 -4.88281,-1.75781 -1.95312,-1.95313 -1.95312,-5.56641 0,-10.74219 12.59765,-19.62891 0,12.59766 4.6875,21.97266 -5.46875,4.98047 -10.44922,4.98047 z"
           style="font-style:normal;font-variant:normal;font-weight:normal;font-stretch:normal;font-size:100px;font-family:'EPSON 太明朝体Ｂ';-inkscape-font-specification:'EPSON 太明朝体Ｂ'"
           id="path5636"
           inkscape:connector-curvature="0" />
        <path
           d="m 466.02109,896.62933 0,100.19532 8.20312,0 0,-100.19532 -8.20312,0 z"
           style="font-style:normal;font-variant:normal;font-weight:normal;font-stretch:normal;font-size:100px;font-family:'EPSON 太明朝体Ｂ';-inkscape-font-specification:'EPSON 太明朝体Ｂ'"
           id="path5638"
           inkscape:connector-curvature="0" />
      </g>
    </clipPath>
    <clipPath
       clipPathUnits="userSpaceOnUse"
       id="clipPath5640">
      <g
         transform="matrix(0.95401358,0,0,1.0482031,0,-5.7716691e-6)"
         style="font-style:normal;font-weight:normal;font-size:110.1632309px;line-height:125%;font-family:sans-serif;letter-spacing:0px;word-spacing:0px;fill:#ff1a01;fill-opacity:1;stroke:none;stroke-width:1px;stroke-linecap:butt;stroke-linejoin:miter;stroke-opacity:1"
         id="g5642">
        <path
           d="m -33.978912,896.62933 0,100.19532 8.203125,0 0,-100.19532 -8.203125,0 z"
           style="font-style:normal;font-variant:normal;font-weight:normal;font-stretch:normal;font-size:100px;font-family:'EPSON 太明朝体Ｂ';-inkscape-font-specification:'EPSON 太明朝体Ｂ'"
           id="path5644"
           inkscape:connector-curvature="0" />
        <path
           d="m 32.232025,971.33636 q 0,4.88282 3.613281,8.88672 4.492188,4.49219 10.253907,4.49219 9.179687,0 16.210937,-6.54297 2.246094,3.8086 3.417969,3.8086 2.441406,0 4.492187,-2.34375 1.464844,-1.95313 1.464844,-3.02735 0,-0.8789 -0.488281,-1.95312 -0.78125,-1.5625 -1.953125,-2.92969 11.328125,-10.83984 20.019531,-26.85547 3.808594,1.26953 6.933594,5.66406 2.734375,3.8086 2.734375,9.57032 0,6.54296 -6.25,14.45312 -6.054688,7.71484 -21.777344,12.5 l 0.683594,2.05078 q 16.40625,-2.4414 25.683594,-7.42187 13.378902,-8.00782 13.378902,-19.72657 0,-8.6914 -5.46875,-14.74609 -5.957027,-6.34766 -15.429684,-8.59375 -1.757812,-2.14844 -5.273437,-4.39453 -3.125,-1.66016 -4.492188,-1.66016 -1.660156,0 -1.660156,2.05078 1.757813,1.66016 2.246094,3.125 -10.546875,0.19532 -17.871094,2.44141 0.390625,-4.6875 1.5625,-10.15625 14.648438,-1.85547 25.390625,-5.46875 3.027344,-1.17187 3.515625,-3.90625 0,-2.05078 -1.074219,-3.125 -3.125,-2.63672 -5.46875,-2.63672 -1.953125,0.48828 -3.613281,1.26953 -7.910156,3.51563 -16.40625,5.66407 0.585938,-3.02735 4.296875,-9.76563 0,-2.63672 -3.90625,-4.6875 -5.957031,-3.125 -10.839844,-3.125 -2.148437,0.68359 -2.148437,2.63672 5.175781,2.92969 5.175781,4.98047 0,0.8789 -0.488281,2.4414 -1.074219,3.61329 -2.246094,9.08204 -4.394531,0.78125 -10.546875,0.78125 -3.222656,0 -5.566406,-0.87891 -1.855469,-0.58594 -4.199219,-2.63672 l -0.78125,0.78125 q 1.367188,4.58984 4.101563,6.83594 4.199218,3.41797 8.496093,3.41797 2.539063,0 7.226563,-0.39063 -1.074219,4.98047 -1.074219,11.52344 -7.324219,3.51562 -12.402344,8.20312 -9.472656,9.08204 -9.472656,20.3125 z M 65.43515,964.1098 q -3.125,-7.22656 -3.125,-18.45703 7.324219,-3.41797 18.066406,-3.41797 -6.054687,13.08594 -14.941406,21.875 z m -16.992187,11.52344 q -3.320313,0 -4.882813,-1.75781 -1.953125,-1.95313 -1.953125,-5.56641 0,-10.74219 12.597656,-19.62891 0,12.59766 4.6875,21.97266 -5.46875,4.98047 -10.449218,4.98047 z"
           style="font-style:normal;font-variant:normal;font-weight:normal;font-stretch:normal;font-size:100px;font-family:'EPSON 太明朝体Ｂ';-inkscape-font-specification:'EPSON 太明朝体Ｂ'"
           id="path5646"
           inkscape:connector-curvature="0" />
        <path
           d="m 132.23203,971.33636 q 0,4.88282 3.61328,8.88672 4.49218,4.49219 10.2539,4.49219 9.17969,0 16.21094,-6.54297 2.24609,3.8086 3.41797,3.8086 2.44141,0 4.49219,-2.34375 1.46484,-1.95313 1.46484,-3.02735 0,-0.8789 -0.48828,-1.95312 -0.78125,-1.5625 -1.95313,-2.92969 11.32813,-10.83984 20.01954,-26.85547 3.80859,1.26953 6.93359,5.66406 2.73437,3.8086 2.73437,9.57032 0,6.54296 -6.25,14.45312 -6.05468,7.71484 -21.77734,12.5 l 0.68359,2.05078 q 16.40625,-2.4414 25.6836,-7.42187 13.3789,-8.00782 13.3789,-19.72657 0,-8.6914 -5.46875,-14.74609 -5.95703,-6.34766 -15.42968,-8.59375 -1.75782,-2.14844 -5.27344,-4.39453 -3.125,-1.66016 -4.49219,-1.66016 -1.66015,0 -1.66015,2.05078 1.75781,1.66016 2.24609,3.125 -10.54688,0.19532 -17.87109,2.44141 0.39062,-4.6875 1.5625,-10.15625 14.64843,-1.85547 25.39062,-5.46875 3.02734,-1.17187 3.51563,-3.90625 0,-2.05078 -1.07422,-3.125 -3.125,-2.63672 -5.46875,-2.63672 -1.95313,0.48828 -3.61328,1.26953 -7.91016,3.51563 -16.40625,5.66407 0.58593,-3.02735 4.29687,-9.76563 0,-2.63672 -3.90625,-4.6875 -5.95703,-3.125 -10.83984,-3.125 -2.14844,0.68359 -2.14844,2.63672 5.17578,2.92969 5.17578,4.98047 0,0.8789 -0.48828,2.4414 -1.07422,3.61329 -2.24609,9.08204 -4.39454,0.78125 -10.54688,0.78125 -3.22266,0 -5.56641,-0.87891 -1.85546,-0.58594 -4.19921,-2.63672 l -0.78125,0.78125 q 1.36718,4.58984 4.10156,6.83594 4.19922,3.41797 8.49609,3.41797 2.53906,0 7.22656,-0.39063 -1.07421,4.98047 -1.07421,11.52344 -7.32422,3.51562 -12.40235,8.20312 -9.47265,9.08204 -9.47265,20.3125 z m 33.20312,-7.22656 q -3.125,-7.22656 -3.125,-18.45703 7.32422,-3.41797 18.06641,-3.41797 -6.05469,13.08594 -14.94141,21.875 z m -16.99219,11.52344 q -3.32031,0 -4.88281,-1.75781 -1.95312,-1.95313 -1.95312,-5.56641 0,-10.74219 12.59765,-19.62891 0,12.59766 4.6875,21.97266 -5.46875,4.98047 -10.44922,4.98047 z"
           style="font-style:normal;font-variant:normal;font-weight:normal;font-stretch:normal;font-size:100px;font-family:'EPSON 太明朝体Ｂ';-inkscape-font-specification:'EPSON 太明朝体Ｂ'"
           id="path5648"
           inkscape:connector-curvature="0" />
        <path
           d="m 232.23203,971.33636 q 0,4.88282 3.61328,8.88672 4.49218,4.49219 10.2539,4.49219 9.17969,0 16.21094,-6.54297 2.24609,3.8086 3.41797,3.8086 2.44141,0 4.49219,-2.34375 1.46484,-1.95313 1.46484,-3.02735 0,-0.8789 -0.48828,-1.95312 -0.78125,-1.5625 -1.95313,-2.92969 11.32813,-10.83984 20.01954,-26.85547 3.80859,1.26953 6.93359,5.66406 2.73437,3.8086 2.73437,9.57032 0,6.54296 -6.25,14.45312 -6.05468,7.71484 -21.77734,12.5 l 0.68359,2.05078 q 16.40625,-2.4414 25.6836,-7.42187 13.3789,-8.00782 13.3789,-19.72657 0,-8.6914 -5.46875,-14.74609 -5.95703,-6.34766 -15.42968,-8.59375 -1.75782,-2.14844 -5.27344,-4.39453 -3.125,-1.66016 -4.49219,-1.66016 -1.66015,0 -1.66015,2.05078 1.75781,1.66016 2.24609,3.125 -10.54688,0.19532 -17.87109,2.44141 0.39062,-4.6875 1.5625,-10.15625 14.64843,-1.85547 25.39062,-5.46875 3.02734,-1.17187 3.51563,-3.90625 0,-2.05078 -1.07422,-3.125 -3.125,-2.63672 -5.46875,-2.63672 -1.95313,0.48828 -3.61328,1.26953 -7.91016,3.51563 -16.40625,5.66407 0.58593,-3.02735 4.29687,-9.76563 0,-2.63672 -3.90625,-4.6875 -5.95703,-3.125 -10.83984,-3.125 -2.14844,0.68359 -2.14844,2.63672 5.17578,2.92969 5.17578,4.98047 0,0.8789 -0.48828,2.4414 -1.07422,3.61329 -2.24609,9.08204 -4.39454,0.78125 -10.54688,0.78125 -3.22266,0 -5.56641,-0.87891 -1.85546,-0.58594 -4.19921,-2.63672 l -0.78125,0.78125 q 1.36718,4.58984 4.10156,6.83594 4.19922,3.41797 8.49609,3.41797 2.53906,0 7.22656,-0.39063 -1.07421,4.98047 -1.07421,11.52344 -7.32422,3.51562 -12.40235,8.20312 -9.47265,9.08204 -9.47265,20.3125 z m 33.20312,-7.22656 q -3.125,-7.22656 -3.125,-18.45703 7.32422,-3.41797 18.06641,-3.41797 -6.05469,13.08594 -14.94141,21.875 z m -16.99219,11.52344 q -3.32031,0 -4.88281,-1.75781 -1.95312,-1.95313 -1.95312,-5.56641 0,-10.74219 12.59765,-19.62891 0,12.59766 4.6875,21.97266 -5.46875,4.98047 -10.44922,4.98047 z"
           style="font-style:normal;font-variant:normal;font-weight:normal;font-stretch:normal;font-size:100px;font-family:'EPSON 太明朝体Ｂ';-inkscape-font-specification:'EPSON 太明朝体Ｂ'"
           id="path5650"
           inkscape:connector-curvature="0" />
        <path
           d="m 332.23203,971.33636 q 0,4.88282 3.61328,8.88672 4.49218,4.49219 10.2539,4.49219 9.17969,0 16.21094,-6.54297 2.24609,3.8086 3.41797,3.8086 2.44141,0 4.49219,-2.34375 1.46484,-1.95313 1.46484,-3.02735 0,-0.8789 -0.48828,-1.95312 -0.78125,-1.5625 -1.95313,-2.92969 11.32813,-10.83984 20.01954,-26.85547 3.80859,1.26953 6.93359,5.66406 2.73437,3.8086 2.73437,9.57032 0,6.54296 -6.25,14.45312 -6.05468,7.71484 -21.77734,12.5 l 0.68359,2.05078 q 16.40625,-2.4414 25.6836,-7.42187 13.3789,-8.00782 13.3789,-19.72657 0,-8.6914 -5.46875,-14.74609 -5.95703,-6.34766 -15.42968,-8.59375 -1.75782,-2.14844 -5.27344,-4.39453 -3.125,-1.66016 -4.49219,-1.66016 -1.66015,0 -1.66015,2.05078 1.75781,1.66016 2.24609,3.125 -10.54688,0.19532 -17.87109,2.44141 0.39062,-4.6875 1.5625,-10.15625 14.64843,-1.85547 25.39062,-5.46875 3.02734,-1.17187 3.51563,-3.90625 0,-2.05078 -1.07422,-3.125 -3.125,-2.63672 -5.46875,-2.63672 -1.95313,0.48828 -3.61328,1.26953 -7.91016,3.51563 -16.40625,5.66407 0.58593,-3.02735 4.29687,-9.76563 0,-2.63672 -3.90625,-4.6875 -5.95703,-3.125 -10.83984,-3.125 -2.14844,0.68359 -2.14844,2.63672 5.17578,2.92969 5.17578,4.98047 0,0.8789 -0.48828,2.4414 -1.07422,3.61329 -2.24609,9.08204 -4.39454,0.78125 -10.54688,0.78125 -3.22266,0 -5.56641,-0.87891 -1.85546,-0.58594 -4.19921,-2.63672 l -0.78125,0.78125 q 1.36718,4.58984 4.10156,6.83594 4.19922,3.41797 8.49609,3.41797 2.53906,0 7.22656,-0.39063 -1.07421,4.98047 -1.07421,11.52344 -7.32422,3.51562 -12.40235,8.20312 -9.47265,9.08204 -9.47265,20.3125 z m 33.20312,-7.22656 q -3.125,-7.22656 -3.125,-18.45703 7.32422,-3.41797 18.06641,-3.41797 -6.05469,13.08594 -14.94141,21.875 z m -16.99219,11.52344 q -3.32031,0 -4.88281,-1.75781 -1.95312,-1.95313 -1.95312,-5.56641 0,-10.74219 12.59765,-19.62891 0,12.59766 4.6875,21.97266 -5.46875,4.98047 -10.44922,4.98047 z"
           style="font-style:normal;font-variant:normal;font-weight:normal;font-stretch:normal;font-size:100px;font-family:'EPSON 太明朝体Ｂ';-inkscape-font-specification:'EPSON 太明朝体Ｂ'"
           id="path5652"
           inkscape:connector-curvature="0" />
        <path
           d="m 466.02109,896.62933 0,100.19532 8.20312,0 0,-100.19532 -8.20312,0 z"
           style="font-style:normal;font-variant:normal;font-weight:normal;font-stretch:normal;font-size:100px;font-family:'EPSON 太明朝体Ｂ';-inkscape-font-specification:'EPSON 太明朝体Ｂ'"
           id="path5654"
           inkscape:connector-curvature="0" />
      </g>
    </clipPath>
    <clipPath
       clipPathUnits="userSpaceOnUse"
       id="clipPath5656">
      <g
         transform="matrix(0.95401358,0,0,1.0482031,0,-5.7716691e-6)"
         style="font-style:normal;font-weight:normal;font-size:110.1632309px;line-height:125%;font-family:sans-serif;letter-spacing:0px;word-spacing:0px;fill:#ff1a01;fill-opacity:1;stroke:none;stroke-width:1px;stroke-linecap:butt;stroke-linejoin:miter;stroke-opacity:1"
         id="g5658">
        <path
           d="m -33.978912,896.62933 0,100.19532 8.203125,0 0,-100.19532 -8.203125,0 z"
           style="font-style:normal;font-variant:normal;font-weight:normal;font-stretch:normal;font-size:100px;font-family:'EPSON 太明朝体Ｂ';-inkscape-font-specification:'EPSON 太明朝体Ｂ'"
           id="path5660"
           inkscape:connector-curvature="0" />
        <path
           d="m 32.232025,971.33636 q 0,4.88282 3.613281,8.88672 4.492188,4.49219 10.253907,4.49219 9.179687,0 16.210937,-6.54297 2.246094,3.8086 3.417969,3.8086 2.441406,0 4.492187,-2.34375 1.464844,-1.95313 1.464844,-3.02735 0,-0.8789 -0.488281,-1.95312 -0.78125,-1.5625 -1.953125,-2.92969 11.328125,-10.83984 20.019531,-26.85547 3.808594,1.26953 6.933594,5.66406 2.734375,3.8086 2.734375,9.57032 0,6.54296 -6.25,14.45312 -6.054688,7.71484 -21.777344,12.5 l 0.683594,2.05078 q 16.40625,-2.4414 25.683594,-7.42187 13.378902,-8.00782 13.378902,-19.72657 0,-8.6914 -5.46875,-14.74609 -5.957027,-6.34766 -15.429684,-8.59375 -1.757812,-2.14844 -5.273437,-4.39453 -3.125,-1.66016 -4.492188,-1.66016 -1.660156,0 -1.660156,2.05078 1.757813,1.66016 2.246094,3.125 -10.546875,0.19532 -17.871094,2.44141 0.390625,-4.6875 1.5625,-10.15625 14.648438,-1.85547 25.390625,-5.46875 3.027344,-1.17187 3.515625,-3.90625 0,-2.05078 -1.074219,-3.125 -3.125,-2.63672 -5.46875,-2.63672 -1.953125,0.48828 -3.613281,1.26953 -7.910156,3.51563 -16.40625,5.66407 0.585938,-3.02735 4.296875,-9.76563 0,-2.63672 -3.90625,-4.6875 -5.957031,-3.125 -10.839844,-3.125 -2.148437,0.68359 -2.148437,2.63672 5.175781,2.92969 5.175781,4.98047 0,0.8789 -0.488281,2.4414 -1.074219,3.61329 -2.246094,9.08204 -4.394531,0.78125 -10.546875,0.78125 -3.222656,0 -5.566406,-0.87891 -1.855469,-0.58594 -4.199219,-2.63672 l -0.78125,0.78125 q 1.367188,4.58984 4.101563,6.83594 4.199218,3.41797 8.496093,3.41797 2.539063,0 7.226563,-0.39063 -1.074219,4.98047 -1.074219,11.52344 -7.324219,3.51562 -12.402344,8.20312 -9.472656,9.08204 -9.472656,20.3125 z M 65.43515,964.1098 q -3.125,-7.22656 -3.125,-18.45703 7.324219,-3.41797 18.066406,-3.41797 -6.054687,13.08594 -14.941406,21.875 z m -16.992187,11.52344 q -3.320313,0 -4.882813,-1.75781 -1.953125,-1.95313 -1.953125,-5.56641 0,-10.74219 12.597656,-19.62891 0,12.59766 4.6875,21.97266 -5.46875,4.98047 -10.449218,4.98047 z"
           style="font-style:normal;font-variant:normal;font-weight:normal;font-stretch:normal;font-size:100px;font-family:'EPSON 太明朝体Ｂ';-inkscape-font-specification:'EPSON 太明朝体Ｂ'"
           id="path5662"
           inkscape:connector-curvature="0" />
        <path
           d="m 132.23203,971.33636 q 0,4.88282 3.61328,8.88672 4.49218,4.49219 10.2539,4.49219 9.17969,0 16.21094,-6.54297 2.24609,3.8086 3.41797,3.8086 2.44141,0 4.49219,-2.34375 1.46484,-1.95313 1.46484,-3.02735 0,-0.8789 -0.48828,-1.95312 -0.78125,-1.5625 -1.95313,-2.92969 11.32813,-10.83984 20.01954,-26.85547 3.80859,1.26953 6.93359,5.66406 2.73437,3.8086 2.73437,9.57032 0,6.54296 -6.25,14.45312 -6.05468,7.71484 -21.77734,12.5 l 0.68359,2.05078 q 16.40625,-2.4414 25.6836,-7.42187 13.3789,-8.00782 13.3789,-19.72657 0,-8.6914 -5.46875,-14.74609 -5.95703,-6.34766 -15.42968,-8.59375 -1.75782,-2.14844 -5.27344,-4.39453 -3.125,-1.66016 -4.49219,-1.66016 -1.66015,0 -1.66015,2.05078 1.75781,1.66016 2.24609,3.125 -10.54688,0.19532 -17.87109,2.44141 0.39062,-4.6875 1.5625,-10.15625 14.64843,-1.85547 25.39062,-5.46875 3.02734,-1.17187 3.51563,-3.90625 0,-2.05078 -1.07422,-3.125 -3.125,-2.63672 -5.46875,-2.63672 -1.95313,0.48828 -3.61328,1.26953 -7.91016,3.51563 -16.40625,5.66407 0.58593,-3.02735 4.29687,-9.76563 0,-2.63672 -3.90625,-4.6875 -5.95703,-3.125 -10.83984,-3.125 -2.14844,0.68359 -2.14844,2.63672 5.17578,2.92969 5.17578,4.98047 0,0.8789 -0.48828,2.4414 -1.07422,3.61329 -2.24609,9.08204 -4.39454,0.78125 -10.54688,0.78125 -3.22266,0 -5.56641,-0.87891 -1.85546,-0.58594 -4.19921,-2.63672 l -0.78125,0.78125 q 1.36718,4.58984 4.10156,6.83594 4.19922,3.41797 8.49609,3.41797 2.53906,0 7.22656,-0.39063 -1.07421,4.98047 -1.07421,11.52344 -7.32422,3.51562 -12.40235,8.20312 -9.47265,9.08204 -9.47265,20.3125 z m 33.20312,-7.22656 q -3.125,-7.22656 -3.125,-18.45703 7.32422,-3.41797 18.06641,-3.41797 -6.05469,13.08594 -14.94141,21.875 z m -16.99219,11.52344 q -3.32031,0 -4.88281,-1.75781 -1.95312,-1.95313 -1.95312,-5.56641 0,-10.74219 12.59765,-19.62891 0,12.59766 4.6875,21.97266 -5.46875,4.98047 -10.44922,4.98047 z"
           style="font-style:normal;font-variant:normal;font-weight:normal;font-stretch:normal;font-size:100px;font-family:'EPSON 太明朝体Ｂ';-inkscape-font-specification:'EPSON 太明朝体Ｂ'"
           id="path5664"
           inkscape:connector-curvature="0" />
        <path
           d="m 232.23203,971.33636 q 0,4.88282 3.61328,8.88672 4.49218,4.49219 10.2539,4.49219 9.17969,0 16.21094,-6.54297 2.24609,3.8086 3.41797,3.8086 2.44141,0 4.49219,-2.34375 1.46484,-1.95313 1.46484,-3.02735 0,-0.8789 -0.48828,-1.95312 -0.78125,-1.5625 -1.95313,-2.92969 11.32813,-10.83984 20.01954,-26.85547 3.80859,1.26953 6.93359,5.66406 2.73437,3.8086 2.73437,9.57032 0,6.54296 -6.25,14.45312 -6.05468,7.71484 -21.77734,12.5 l 0.68359,2.05078 q 16.40625,-2.4414 25.6836,-7.42187 13.3789,-8.00782 13.3789,-19.72657 0,-8.6914 -5.46875,-14.74609 -5.95703,-6.34766 -15.42968,-8.59375 -1.75782,-2.14844 -5.27344,-4.39453 -3.125,-1.66016 -4.49219,-1.66016 -1.66015,0 -1.66015,2.05078 1.75781,1.66016 2.24609,3.125 -10.54688,0.19532 -17.87109,2.44141 0.39062,-4.6875 1.5625,-10.15625 14.64843,-1.85547 25.39062,-5.46875 3.02734,-1.17187 3.51563,-3.90625 0,-2.05078 -1.07422,-3.125 -3.125,-2.63672 -5.46875,-2.63672 -1.95313,0.48828 -3.61328,1.26953 -7.91016,3.51563 -16.40625,5.66407 0.58593,-3.02735 4.29687,-9.76563 0,-2.63672 -3.90625,-4.6875 -5.95703,-3.125 -10.83984,-3.125 -2.14844,0.68359 -2.14844,2.63672 5.17578,2.92969 5.17578,4.98047 0,0.8789 -0.48828,2.4414 -1.07422,3.61329 -2.24609,9.08204 -4.39454,0.78125 -10.54688,0.78125 -3.22266,0 -5.56641,-0.87891 -1.85546,-0.58594 -4.19921,-2.63672 l -0.78125,0.78125 q 1.36718,4.58984 4.10156,6.83594 4.19922,3.41797 8.49609,3.41797 2.53906,0 7.22656,-0.39063 -1.07421,4.98047 -1.07421,11.52344 -7.32422,3.51562 -12.40235,8.20312 -9.47265,9.08204 -9.47265,20.3125 z m 33.20312,-7.22656 q -3.125,-7.22656 -3.125,-18.45703 7.32422,-3.41797 18.06641,-3.41797 -6.05469,13.08594 -14.94141,21.875 z m -16.99219,11.52344 q -3.32031,0 -4.88281,-1.75781 -1.95312,-1.95313 -1.95312,-5.56641 0,-10.74219 12.59765,-19.62891 0,12.59766 4.6875,21.97266 -5.46875,4.98047 -10.44922,4.98047 z"
           style="font-style:normal;font-variant:normal;font-weight:normal;font-stretch:normal;font-size:100px;font-family:'EPSON 太明朝体Ｂ';-inkscape-font-specification:'EPSON 太明朝体Ｂ'"
           id="path5666"
           inkscape:connector-curvature="0" />
        <path
           d="m 332.23203,971.33636 q 0,4.88282 3.61328,8.88672 4.49218,4.49219 10.2539,4.49219 9.17969,0 16.21094,-6.54297 2.24609,3.8086 3.41797,3.8086 2.44141,0 4.49219,-2.34375 1.46484,-1.95313 1.46484,-3.02735 0,-0.8789 -0.48828,-1.95312 -0.78125,-1.5625 -1.95313,-2.92969 11.32813,-10.83984 20.01954,-26.85547 3.80859,1.26953 6.93359,5.66406 2.73437,3.8086 2.73437,9.57032 0,6.54296 -6.25,14.45312 -6.05468,7.71484 -21.77734,12.5 l 0.68359,2.05078 q 16.40625,-2.4414 25.6836,-7.42187 13.3789,-8.00782 13.3789,-19.72657 0,-8.6914 -5.46875,-14.74609 -5.95703,-6.34766 -15.42968,-8.59375 -1.75782,-2.14844 -5.27344,-4.39453 -3.125,-1.66016 -4.49219,-1.66016 -1.66015,0 -1.66015,2.05078 1.75781,1.66016 2.24609,3.125 -10.54688,0.19532 -17.87109,2.44141 0.39062,-4.6875 1.5625,-10.15625 14.64843,-1.85547 25.39062,-5.46875 3.02734,-1.17187 3.51563,-3.90625 0,-2.05078 -1.07422,-3.125 -3.125,-2.63672 -5.46875,-2.63672 -1.95313,0.48828 -3.61328,1.26953 -7.91016,3.51563 -16.40625,5.66407 0.58593,-3.02735 4.29687,-9.76563 0,-2.63672 -3.90625,-4.6875 -5.95703,-3.125 -10.83984,-3.125 -2.14844,0.68359 -2.14844,2.63672 5.17578,2.92969 5.17578,4.98047 0,0.8789 -0.48828,2.4414 -1.07422,3.61329 -2.24609,9.08204 -4.39454,0.78125 -10.54688,0.78125 -3.22266,0 -5.56641,-0.87891 -1.85546,-0.58594 -4.19921,-2.63672 l -0.78125,0.78125 q 1.36718,4.58984 4.10156,6.83594 4.19922,3.41797 8.49609,3.41797 2.53906,0 7.22656,-0.39063 -1.07421,4.98047 -1.07421,11.52344 -7.32422,3.51562 -12.40235,8.20312 -9.47265,9.08204 -9.47265,20.3125 z m 33.20312,-7.22656 q -3.125,-7.22656 -3.125,-18.45703 7.32422,-3.41797 18.06641,-3.41797 -6.05469,13.08594 -14.94141,21.875 z m -16.99219,11.52344 q -3.32031,0 -4.88281,-1.75781 -1.95312,-1.95313 -1.95312,-5.56641 0,-10.74219 12.59765,-19.62891 0,12.59766 4.6875,21.97266 -5.46875,4.98047 -10.44922,4.98047 z"
           style="font-style:normal;font-variant:normal;font-weight:normal;font-stretch:normal;font-size:100px;font-family:'EPSON 太明朝体Ｂ';-inkscape-font-specification:'EPSON 太明朝体Ｂ'"
           id="path5668"
           inkscape:connector-curvature="0" />
        <path
           d="m 466.02109,896.62933 0,100.19532 8.20312,0 0,-100.19532 -8.20312,0 z"
           style="font-style:normal;font-variant:normal;font-weight:normal;font-stretch:normal;font-size:100px;font-family:'EPSON 太明朝体Ｂ';-inkscape-font-specification:'EPSON 太明朝体Ｂ'"
           id="path5670"
           inkscape:connector-curvature="0" />
      </g>
    </clipPath>
  </defs>
  <sodipodi:namedview
     id="base"
     pagecolor="#ffffff"
     bordercolor="#666666"
     borderopacity="1.0"
     inkscape:pageopacity="0.0"
     inkscape:pageshadow="2"
     inkscape:zoom="2.8284272"
     inkscape:cx="265.24652"
     inkscape:cy="54.749739"
     inkscape:document-units="px"
     inkscape:current-layer="g5254"
     showgrid="false"
     units="px"
     inkscape:window-width="1366"
     inkscape:window-height="749"
     inkscape:window-x="0"
     inkscape:window-y="0"
     inkscape:window-maximized="0" />
  <metadata
     id="metadata7">
    <rdf:RDF>
      <cc:Work
         rdf:about="">
        <dc:format>image/svg+xml</dc:format>
        <dc:type
           rdf:resource="http://purl.org/dc/dcmitype/StillImage" />
        <dc:title></dc:title>
      </cc:Work>
    </rdf:RDF>
  </metadata>
  <g
     inkscape:label="Layer 1"
     inkscape:groupmode="layer"
     id="layer1"
     transform="translate(0,-932.36216)">
    <path
       style="opacity:1;fill:#000000;fill-opacity:1;stroke:none;stroke-width:1.33659101;stroke-linecap:round;stroke-linejoin:miter;stroke-miterlimit:4;stroke-dasharray:none;stroke-dashoffset:0;stroke-opacity:1"
       clip-path="url(#clipPath5656)"
       d="m 10,942.36212 100,0 0,99.99998 -100,0 z"
       id="rect4225" />
    <path
       style="opacity:1;fill:#c8c8c8;fill-opacity:1;stroke:none;stroke-width:1.38716519;stroke-linecap:round;stroke-linejoin:miter;stroke-miterlimit:4;stroke-dasharray:none;stroke-dashoffset:0;stroke-opacity:1"
       clip-path="url(#clipPath5640)"
       d="m 110,942.36218 200,0 0,100.00002 -200,0 z"
       id="rect4223" />
    <path
       style="fill:#646464;fill-opacity:1;fill-rule:evenodd;stroke:none;stroke-width:1px;stroke-linecap:butt;stroke-linejoin:miter;stroke-opacity:1;opacity:1"
       d="m 239.65,946.1193 -15.40949,16.21032 c -0.14363,0.54138 -3.24593,6.87979 -3.24593,6.87979 l 20.34314,13.65268 1.0825,5.405 0.093,6.145 -2.67545,13.07511 7.15054,9.955 c 0.59662,1.2154 2.56504,6.4933 3.262,7.8886 l 1.59734,5.6414 8.3085,-2.4528 0.83969,-7.4246 -4.13453,-2.5296 c -0.72656,-0.8672 -3.634,-7.983 -3.634,-7.983 l -0.38954,-12.59514 -2.59155,-6.75497 c 0,-0.13672 0.374,-5.73 0.374,-5.73 l 1.93453,-5.79522 25.98359,-7.06449 c 0.10496,-0.58005 3.82699,-13.63413 3.82699,-13.63413 0,0 -20.97174,-6.87855 -20.97174,-6.17144 0,0.70711 -16.61701,-8.13173 -16.61701,-8.13173 z"
       id="path4364-0"
       inkscape:connector-curvature="0"
       clip-path="url(#clipPath5624)"
       sodipodi:nodetypes="ccccccccccccccccccccscc" />
    <path
       style="opacity:1;fill:#646464;fill-opacity:1;fill-rule:evenodd;stroke:none;stroke-width:2;stroke-linecap:round;stroke-linejoin:miter;stroke-miterlimit:4;stroke-dasharray:none;stroke-dashoffset:0;stroke-opacity:1"
       clip-path="url(#clipPath5608)"
       d="m 310,942.36218 100,0 0,100.00002 -100,0 z"
       id="rect4627" />
    <path
       style="fill:#646464;fill-opacity:1;fill-rule:evenodd;stroke:none;stroke-width:1px;stroke-linecap:butt;stroke-linejoin:miter;stroke-opacity:1;opacity:1"
       d="m 149.258,967.89816 c 0,0 -11.76561,-1.92128 -12.44771,-1.48087 0,0 -9.58314,-4.2823 -9.72579,-3.27939 -0.14265,1.00291 7.62052,13.04373 7.51802,13.77899 -0.10249,0.73527 13.43748,-0.72673 13.43748,-0.72673 3.79032,-0.46369 4.95095,-0.78051 8.67,-1.338 0.0262,-0.14501 26.87135,-2.50666 27.0846,-3.31987 0.21326,-0.81321 2.49312,-11.74525 2.76503,-12.76762 0.2719,-1.02236 -10.65655,-0.62033 -10.45435,-1.3928 0.20221,-0.77247 -17.16028,8.88429 -17.16028,8.88429 -4.4142,0.8808 -5.85705,0.94566 -9.687,1.642 z"
       id="path4364"
       inkscape:connector-curvature="0"
       clip-path="url(#clipPath5592)"
       sodipodi:nodetypes="csssccssscc" />
    <g
       id="g5254"
       clip-path="none"
       style="opacity:1">
      <g
         id="g5985">
        <path
           style="opacity:0.6;fill:#00ff00;fill-opacity:1;fill-rule:evenodd;stroke:none;stroke-width:2;stroke-linecap:round;stroke-linejoin:miter;stroke-miterlimit:4;stroke-dasharray:none;stroke-dashoffset:0;stroke-opacity:1"
           d="m 137,968.36216 a 5,5 0 0 1 -5,5 5,5 0 0 1 -5,-5 5,5 0 0 1 5,-5 5,5 0 0 1 5,5 z"
           id="path4689"
           inkscape:connector-curvature="0" />
        <path
           style="opacity:0.6;fill:none;fill-opacity:1;fill-rule:nonzero;stroke:#ff0000;stroke-width:1.5;stroke-linecap:square;stroke-linejoin:miter;stroke-miterlimit:4;stroke-dasharray:none;stroke-dashoffset:0;stroke-opacity:1;marker-end:url(#TriangleOutM)"
           d="m 137,982.11216 c 18.5,0 30.80546,-2.92678 40.80546,-6.17678"
           id="path4691"
           inkscape:connector-curvature="0"
           sodipodi:nodetypes="cc" />
        <path
           style="opacity:0.6;fill:none;fill-opacity:1;fill-rule:evenodd;stroke:#ff0000;stroke-width:1.5;stroke-linecap:butt;stroke-linejoin:miter;stroke-miterlimit:4;stroke-dasharray:none;stroke-opacity:1;marker-end:url(#marker5955)"
           d="m 259.5,962.61216 c -5,24.25 -3.75,32.25004 0.25,50.00004"
           id="path5947"
           inkscape:connector-curvature="0"
           sodipodi:nodetypes="cc" />
        <path
           style="opacity:0.6;fill:none;fill-opacity:1;fill-rule:evenodd;stroke:#ff0000;stroke-width:1.5;stroke-linecap:butt;stroke-linejoin:miter;stroke-miterlimit:4;stroke-dasharray:none;stroke-opacity:1;marker-end:url(#marker6825)"
           d="m 372.125,998.86216 c -3,5.25004 -4.875,7.87504 -10,14.87504"
           id="path6529"
           inkscape:connector-curvature="0"
           sodipodi:nodetypes="cc" />
        <path
           style="opacity:0.6;fill:none;fill-opacity:1;fill-rule:evenodd;stroke:#ff0000;stroke-width:1.5;stroke-linecap:butt;stroke-linejoin:miter;stroke-miterlimit:4;stroke-dasharray:none;stroke-opacity:1;marker-end:url(#marker6647)"
           d="m 318.16291,1031.5604 c -6.02297,-5.609 -6.50888,-11.3405 -5.66291,-18.3232"
           id="path6533"
           inkscape:connector-curvature="0"
           sodipodi:nodetypes="cc" />
        <path
           style="opacity:0.6;fill:none;fill-opacity:1;fill-rule:evenodd;stroke:#ff0000;stroke-width:1.5;stroke-linecap:butt;stroke-linejoin:miter;stroke-miterlimit:4;stroke-dasharray:none;stroke-opacity:1;marker-end:url(#marker6547)"
           d="m 392.5,994.23716 c 4.25,7.37504 4.625,14.37504 1.25,25.37504"
           id="path6537"
           inkscape:connector-curvature="0"
           sodipodi:nodetypes="cc" />
        <circle
           style="opacity:0.6;fill:#00ff00;fill-opacity:1;fill-rule:evenodd;stroke:none;stroke-width:2;stroke-linecap:round;stroke-linejoin:miter;stroke-miterlimit:4;stroke-dasharray:none;stroke-dashoffset:0;stroke-opacity:1"
           id="path4689-3"
           cx="364"
           cy="980.36218"
           r="5" />
        <circle
           style="opacity:0.6;fill:#00ff00;fill-opacity:1;fill-rule:evenodd;stroke:none;stroke-width:2;stroke-linecap:round;stroke-linejoin:miter;stroke-miterlimit:4;stroke-dasharray:none;stroke-dashoffset:0;stroke-opacity:1"
           id="path4689-3-1"
           cx="246"
           cy="950.36218"
           r="5" />
      </g>
    </g>
  </g>
</svg>
