<?xml version="1.0" encoding="UTF-8" standalone="no"?>
<!-- Created with Inkscape (http://www.inkscape.org/) -->

<svg
   xmlns:dc="http://purl.org/dc/elements/1.1/"
   xmlns:cc="http://creativecommons.org/ns#"
   xmlns:rdf="http://www.w3.org/1999/02/22-rdf-syntax-ns#"
   xmlns:svg="http://www.w3.org/2000/svg"
   xmlns="http://www.w3.org/2000/svg"
   xmlns:sodipodi="http://sodipodi.sourceforge.net/DTD/sodipodi-0.dtd"
   xmlns:inkscape="http://www.inkscape.org/namespaces/inkscape"
   width="32000"
   height="32000"
   viewBox="0 0 32000 32000.001"
   id="svg2"
   version="1.1"
   inkscape:version="0.91 r13725"
   sodipodi:docname="favicon.svg"
   inkscape:export-filename="C:\Users\Manuel\Desktop\favicon_256x.png"
   inkscape:export-xdpi="0.72000003"
   inkscape:export-ydpi="0.72000003">
  <defs
     id="defs4" />
  <sodipodi:namedview
     id="base"
     pagecolor="#ffffff"
     bordercolor="#666666"
     borderopacity="1.0"
     inkscape:pageopacity="0.0"
     inkscape:pageshadow="2"
     inkscape:zoom="0.014142136"
     inkscape:cx="25003.062"
     inkscape:cy="16583.104"
     inkscape:document-units="px"
     inkscape:current-layer="layer1"
     showgrid="true"
     units="px"
     inkscape:window-width="1366"
     inkscape:window-height="705"
     inkscape:window-x="-8"
     inkscape:window-y="-8"
     inkscape:window-maximized="1">
    <inkscape:grid
       type="xygrid"
       id="grid3336" />
  </sodipodi:namedview>
  <metadata
     id="metadata7">
    <rdf:RDF>
      <cc:Work
         rdf:about="">
        <dc:format>image/svg+xml</dc:format>
        <dc:type
           rdf:resource="http://purl.org/dc/dcmitype/StillImage" />
        <dc:title />
      </cc:Work>
    </rdf:RDF>
  </metadata>
  <g
     inkscape:label="Ebene 1"
     inkscape:groupmode="layer"
     id="layer1"
     transform="translate(0,30947.639)">
    <circle
       style="fill:#ffffff;fill-opacity:1"
       id="path4138"
       cx="16000"
       cy="-14947.639"
       r="14000.001" />
    <path
       style="fill:#3f51b5;fill-opacity:1;fill-rule:evenodd;stroke:#000000;stroke-width:2.08637452px;stroke-linecap:butt;stroke-linejoin:miter;stroke-opacity:1"
       d="M 16000,-26946.596 A 11998.958,11998.958 0 0 0 4001.0424,-14947.639 11998.958,11998.958 0 0 0 16000,-2948.6805 11998.958,11998.958 0 0 0 27998.959,-14947.639 11998.958,11998.958 0 0 0 16000,-26946.596 Z m 0,3998.957 a 8000.0006,8000.0003 0 0 1 8000,8000 8000.0006,8000.0003 0 0 1 -8000,8000.0014 8000.0006,8000.0003 0 0 1 -8000.0002,-8000.0014 8000.0006,8000.0003 0 0 1 8000.0002,-8000 z"
       id="path3338"
       inkscape:connector-curvature="0" />
    <path
       inkscape:connector-curvature="0"
       style="fill:#da2100;fill-opacity:1;fill-rule:evenodd;stroke:#000000;stroke-width:2.08619308px;stroke-linecap:butt;stroke-linejoin:miter;stroke-opacity:1"
       d="m 24000.347,-14946.595 a 7999.3038,7999.305 0 0 1 -7999.304,7999.3051 l 0,3998.6094 A 11997.914,11997.915 0 0 0 27998.958,-14946.595 l -3998.611,0 z"
       id="path3338-4" />
    <path
       inkscape:connector-curvature="0"
       style="fill:#daff00;fill-opacity:1;fill-rule:evenodd;stroke:#000000;stroke-width:2.08671021px;stroke-linecap:butt;stroke-linejoin:miter;stroke-opacity:1"
       d="m 27085.15,-19542.667 a 12000.717,12001.062 0 0 0 -6487.066,-6483.204 l -1527.961,3683.914 a 8006.8335,8014.3904 66.878352 0 0 -620.04,-222.757 8001.4033,8001.1731 89.973591 0 1 4939.97,4552.649 8001.4033,8001.1731 89.973591 0 1 -4330.203,10454.3375 8001.4033,8001.1731 89.973591 0 1 -10454.0374,-4330.3275 8001.4033,8001.1731 89.973591 0 1 37.2968,-6209.662 8006.8335,8014.3904 66.878352 0 0 -44.2481,93.223 l -3686.0394,-1524.77 a 12000.717,12001.062 0 0 0 -2.1065,9171.812 12000.717,12001.062 0 0 0 0.4455,0.944 l 3694.7263,-1530.449 a 8000.4775,8000.7066 0.10615597 0 0 10453.1268,4329.9512 l 1530.414,3694.8502 a 12000.717,12001.062 0 0 0 0.979,-0.3622 12000.717,12001.062 0 0 0 0.944,-0.4455 l -1530.406,-3694.8355 a 8000.477,8000.7067 0.03529374 0 0 4329.828,-10453.4332 l 3694.742,-1530.455 a 12000.717,12001.062 0 0 0 -0.362,-0.979 z m 0.362,0.979 A 12000.717,12001.062 0 0 1 20591.35,-3862.9704 l 0.01,0.044 a 11999.675,12000.017 0.17784562 0 0 6494.177,-15678.7806 l -0.04,0.02 z M 20589.429,-3862.1573 A 12000.717,12001.062 0 0 1 4911.1637,-10356.509 l -0.046,0.02 a 11999.674,12000.018 0.05891884 0 0 15678.3283,6494.3626 l -0.01,-0.027 z M 4912.8192,-19529.263 a 12000.717,12001.062 0 0 1 424.417,-930.11 12009.208,12020.542 66.880234 0 0 -438.5186,924.275 l 14.0993,5.841 z m 424.417,-930.11 a 12009.208,12020.542 66.880234 0 1 46.8002,-82.897 12000.717,12001.062 0 0 0 -46.8002,82.897 z m 46.8002,-82.897 a 12000.717,12001.062 0 0 1 547.2149,-938.058 12009.208,12020.542 66.880234 0 0 -547.2149,938.058 z m 547.2149,-938.058 a 12009.208,12020.542 66.880234 0 1 129.1997,-183.324 12000.717,12001.062 0 0 0 -129.1997,183.324 z m 129.1997,-183.324 a 12000.717,12001.062 0 0 1 563.3031,-775.705 12009.208,12020.542 66.880234 0 0 -563.3031,775.705 z m 563.3031,-775.705 a 12009.208,12020.542 66.880234 0 1 222.2796,-256.593 12000.717,12001.062 0 0 0 -222.2796,256.593 z m 222.2796,-256.593 a 12000.717,12001.062 0 0 1 562.8068,-631.325 12009.208,12020.542 66.880234 0 0 -562.8068,631.325 z m 562.8068,-631.325 a 12009.208,12020.542 66.880234 0 1 317.4862,-299.943 12000.717,12001.062 0 0 0 -317.4862,299.943 z m 317.4862,-299.943 a 12000.717,12001.062 0 0 1 553.3769,-508.042 12009.208,12020.542 66.880234 0 0 -553.3769,508.042 z m 553.3769,-508.042 a 12009.208,12020.542 66.880234 0 1 406.3563,-313.472 12000.717,12001.062 0 0 0 -406.3563,313.472 z m 406.3563,-313.472 a 12000.717,12001.062 0 0 1 542.6275,-406.304 12009.208,12020.542 66.880234 0 0 -542.6275,406.304 z m 542.6275,-406.304 a 12009.208,12020.542 66.880234 0 1 480.8618,-299.575 12000.717,12001.062 0 0 0 -480.8618,299.575 z m 480.8618,-299.575 a 12000.717,12001.062 0 0 1 537.7378,-324.321 12009.208,12020.542 66.880234 0 0 -537.7378,324.321 z m 537.7378,-324.321 a 12009.208,12020.542 66.880234 0 1 534.126,-262.806 12000.717,12001.062 0 0 0 -534.126,262.806 z m 534.126,-262.806 a 12000.717,12001.062 0 0 1 544.704,-258.241 12009.208,12020.542 66.880234 0 0 -544.704,258.241 z m 544.704,-258.241 a 12009.208,12020.542 66.880234 0 1 959.293,-358.177 12000.717,12001.062 0 0 0 -879.956,320.563 12000.717,12001.062 0 0 0 -79.337,37.614 z m 959.293,-358.177 a 12000.717,12001.062 0 0 1 595.377,-166 12009.208,12020.542 66.880234 0 0 -595.377,166 z m 595.377,-166 a 12009.208,12020.542 66.880234 0 1 558.44,-147.024 12000.717,12001.062 0 0 0 -558.44,147.024 z m 558.44,-147.024 a 12000.717,12001.062 0 0 1 651.084,-113.043 12009.208,12020.542 66.880234 0 0 -651.084,113.043 z m 651.084,-113.043 a 12009.208,12020.542 66.880234 0 1 524.652,-83.336 12000.717,12001.062 0 0 0 -524.652,83.336 z m 524.652,-83.336 a 12000.717,12001.062 0 0 1 725.729,-52.273 12009.208,12020.542 66.880234 0 0 -725.729,52.273 z m 725.729,-52.273 a 12009.208,12020.542 66.880234 0 1 460.455,-26.553 12000.717,12001.062 0 0 0 -460.455,26.553 z m 460.455,-26.553 a 12000.717,12001.062 0 0 1 815.959,22.934 12009.208,12020.542 66.880234 0 0 -815.959,-22.934 z m 815.959,22.934 a 12009.208,12020.542 66.880234 0 1 369.373,15.644 12000.717,12001.062 0 0 0 -369.373,-15.644 z m 369.373,15.644 a 12000.717,12001.062 0 0 1 916.541,118.056 12009.208,12020.542 66.880234 0 0 -916.541,-118.056 z m 916.541,118.056 a 12009.208,12020.542 66.880234 0 1 256.819,36.789 12000.717,12001.062 0 0 0 -256.819,-36.789 z m 256.819,36.789 a 12000.717,12001.062 0 0 1 1020.506,236.904 12009.208,12020.542 66.880234 0 0 -1020.506,-236.904 z m 1020.506,236.904 a 12009.208,12020.542 66.880234 0 1 130.066,32.14 12000.717,12001.062 0 0 0 -130.066,-32.14 z m 130.066,32.14 a 12000.717,12001.062 0 0 1 1287.671,458.048 l 6.155,-14.86 a 12009.208,12020.542 66.880234 0 0 -1293.834,-443.191 z m -10667.3043,8386.202 a 8006.8335,8014.3904 66.878352 0 1 71.0477,-149.681 8001.4033,8001.1731 89.973591 0 0 -71.0477,149.681 z m 71.0477,-149.681 a 8001.4033,8001.1731 89.973591 0 1 273.3545,-555.51 8006.8335,8014.3904 66.878352 0 0 -273.3545,555.51 z m 273.3545,-555.51 a 8006.8335,8014.3904 66.878352 0 1 139.8447,-231.639 8001.4033,8001.1731 89.973591 0 0 -139.8447,231.639 z m 139.8447,-231.639 a 8001.4033,8001.1731 89.973591 0 1 272.5812,-437.406 8006.8335,8014.3904 66.878352 0 0 -272.5812,437.406 z m 272.5812,-437.406 a 8006.8335,8014.3904 66.878352 0 1 219.5611,-292.986 8001.4033,8001.1731 89.973591 0 0 -219.5611,292.986 z m 219.5611,-292.986 a 8001.4033,8001.1731 89.973591 0 1 257.4472,-333.583 8006.8335,8014.3904 66.878352 0 0 -257.4472,333.583 z m 257.4472,-333.583 a 8006.8335,8014.3904 66.878352 0 1 304.0829,-330.989 8001.4033,8001.1731 89.973591 0 0 -304.0829,330.989 z m 304.0829,-330.989 a 8001.4033,8001.1731 89.973591 0 1 233.504,-247.018 8006.8335,8014.3904 66.878352 0 0 -233.504,247.018 z m 233.504,-247.018 a 8006.8335,8014.3904 66.878352 0 1 386.777,-344.612 8001.4033,8001.1731 89.973591 0 0 -386.777,344.612 z m 386.777,-344.612 a 8001.4033,8001.1731 89.973591 0 1 206.834,-179.046 8006.8335,8014.3904 66.878352 0 0 -206.834,179.046 z m 206.834,-179.046 a 8006.8335,8014.3904 66.878352 0 1 461.13,-334.731 8001.4033,8001.1731 89.973591 0 0 -461.13,334.731 z m 461.13,-334.731 a 8001.4033,8001.1731 89.973591 0 1 183.336,-129.097 8006.8335,8014.3904 66.878352 0 0 -183.336,129.097 z m 183.336,-129.097 a 8006.8335,8014.3904 66.878352 0 1 521.394,-304.081 8001.4033,8001.1731 89.973591 0 0 -521.394,304.081 z m 521.394,-304.081 a 8001.4033,8001.1731 89.973591 0 1 168.169,-94.841 8006.8335,8014.3904 66.878352 0 0 -168.169,94.841 z m 168.169,-94.841 a 8006.8335,8014.3904 66.878352 0 1 679.143,-309.889 8001.4033,8001.1731 89.973591 0 0 -85.299,30.434 8001.4033,8001.1731 89.973591 0 0 -593.844,279.455 z m 679.143,-309.889 a 8001.4033,8001.1731 89.973591 0 1 171.78,-61.288 8006.8335,8014.3904 66.878352 0 0 -171.78,61.288 z m 171.78,-61.288 a 8006.8335,8014.3904 66.878352 0 1 583.299,-198.603 8001.4033,8001.1731 89.973591 0 0 -583.299,198.603 z m 583.299,-198.603 a 8001.4033,8001.1731 89.973591 0 1 194.391,-48.129 8006.8335,8014.3904 66.878352 0 0 -194.391,48.129 z m 194.391,-48.129 a 8006.8335,8014.3904 66.878352 0 1 580.169,-134.778 8001.4033,8001.1731 89.973591 0 0 -580.169,134.778 z m 580.169,-134.778 a 8001.4033,8001.1731 89.973591 0 1 234.417,-33.679 8006.8335,8014.3904 66.878352 0 0 -234.417,33.679 z m 234.417,-33.679 a 8006.8335,8014.3904 66.878352 0 1 551.87,-71.221 8001.4033,8001.1731 89.973591 0 0 -551.87,71.221 z m 551.87,-71.221 a 8001.4033,8001.1731 89.973591 0 1 291.129,-12.44 8006.8335,8014.3904 66.878352 0 0 -291.129,12.44 z m 291.129,-12.44 a 8006.8335,8014.3904 66.878352 0 1 499.319,-14.192 8001.4033,8001.1731 89.973591 0 0 -499.319,14.192 z m 499.319,-14.192 a 8001.4033,8001.1731 89.973591 0 1 361.783,20.751 8006.8335,8014.3904 66.878352 0 0 -361.783,-20.751 z m 361.783,20.751 a 8006.8335,8014.3904 66.878352 0 1 425.308,30.472 8001.4033,8001.1731 89.973591 0 0 -425.308,-30.472 z m 425.308,30.472 a 8001.4033,8001.1731 89.973591 0 1 442.311,70.156 8006.8335,8014.3904 66.878352 0 0 -442.311,-70.156 z m 442.311,70.156 a 8006.8335,8014.3904 66.878352 0 1 334.18,57.873 8001.4033,8001.1731 89.973591 0 0 -334.18,-57.873 z m 334.18,57.873 a 8001.4033,8001.1731 89.973591 0 1 527.122,138.706 8006.8335,8014.3904 66.878352 0 0 -527.122,-138.706 z m 527.122,138.706 a 8006.8335,8014.3904 66.878352 0 1 231.688,64.483 8001.4033,8001.1731 89.973591 0 0 -231.688,-64.483 z"
       id="path3338-3" />
    <path
       inkscape:connector-curvature="0"
       style="fill:#00a200;fill-opacity:1;fill-rule:evenodd;stroke:#000000;stroke-width:2.08619714px;stroke-linecap:butt;stroke-linejoin:miter;stroke-opacity:1"
       d="m 16001.043,-26946.596 0,3998.61 a 7999.304,7999.3044 0 0 1 7999.304,7999.305 l 3998.611,0 A 11997.913,11997.916 0 0 0 16001.043,-26946.596 Z"
       id="path3338-1" />
  </g>
</svg>
